G75*
%MOIN*%
%OFA0B0*%
%FSLAX25Y25*%
%IPPOS*%
%LPD*%
%AMOC8*
5,1,8,0,0,1.08239X$1,22.5*
%
%ADD10C,0.08200*%
%ADD11C,0.12800*%
%ADD12R,0.07887X0.07099*%
%ADD13C,0.13800*%
%ADD14R,0.05162X0.05162*%
D10*
X0041918Y0015894D03*
X0041800Y0026800D03*
X0041800Y0036800D03*
X0041800Y0046800D03*
X0041800Y0056800D03*
X0041800Y0066800D03*
X0041800Y0076800D03*
X0041800Y0086800D03*
X0041800Y0096800D03*
X0041800Y0106800D03*
X0041800Y0116800D03*
X0041800Y0126800D03*
X0091800Y0126800D03*
X0091800Y0116800D03*
X0091800Y0106800D03*
X0091800Y0096800D03*
X0091800Y0086800D03*
X0091800Y0076800D03*
X0091800Y0066800D03*
X0091800Y0056800D03*
X0091800Y0046800D03*
X0091800Y0036800D03*
X0091800Y0026800D03*
X0091761Y0015973D03*
X0341800Y0081800D03*
X0341800Y0121800D03*
D11*
X0014831Y0015422D03*
X0014831Y0149162D03*
X0366091Y0149162D03*
X0366209Y0016209D03*
D12*
X0301721Y0126328D03*
X0301721Y0137351D03*
X0281820Y0137745D03*
X0261918Y0137745D03*
X0241505Y0137706D03*
X0221938Y0137548D03*
X0201918Y0137745D03*
X0201918Y0126721D03*
X0221938Y0126524D03*
X0241505Y0126682D03*
X0261918Y0126721D03*
X0281820Y0126721D03*
D13*
X0281800Y0021800D03*
X0261800Y0021800D03*
X0241800Y0021800D03*
X0221800Y0021800D03*
X0201800Y0021800D03*
X0181800Y0021800D03*
X0301800Y0021800D03*
X0321800Y0021800D03*
X0341800Y0021800D03*
D14*
X0281800Y0031800D03*
X0301800Y0091800D03*
X0262194Y0106131D03*
X0192509Y0106131D03*
X0185028Y0100619D03*
X0163454Y0145698D03*
X0061800Y0141800D03*
X0101800Y0031800D03*
M02*
