G75*
%MOIN*%
%OFA0B0*%
%FSLAX25Y25*%
%IPPOS*%
%LPD*%
%AMOC8*
5,1,8,0,0,1.08239X$1,22.5*
%
%ADD10C,0.00800*%
%ADD11C,0.07400*%
%ADD12C,0.00000*%
%ADD13R,0.07087X0.06299*%
%ADD14C,0.13000*%
%ADD15C,0.01600*%
%ADD16R,0.04362X0.04362*%
D10*
X0001800Y0001800D02*
X0379005Y0001800D01*
X0379005Y0161800D01*
X0001800Y0161800D01*
X0001800Y0001800D01*
D11*
X0041918Y0015894D03*
X0041800Y0026800D03*
X0041800Y0036800D03*
X0041800Y0046800D03*
X0041800Y0056800D03*
X0041800Y0066800D03*
X0041800Y0076800D03*
X0041800Y0086800D03*
X0041800Y0096800D03*
X0041800Y0106800D03*
X0041800Y0116800D03*
X0041800Y0126800D03*
X0091800Y0126800D03*
X0091800Y0116800D03*
X0091800Y0106800D03*
X0091800Y0096800D03*
X0091800Y0086800D03*
X0091800Y0076800D03*
X0091800Y0066800D03*
X0091800Y0056800D03*
X0091800Y0046800D03*
X0091800Y0036800D03*
X0091800Y0026800D03*
X0091761Y0015973D03*
X0341800Y0081800D03*
X0341800Y0121800D03*
D12*
X0360091Y0149162D02*
X0360093Y0149316D01*
X0360099Y0149471D01*
X0360109Y0149625D01*
X0360123Y0149779D01*
X0360141Y0149932D01*
X0360162Y0150085D01*
X0360188Y0150238D01*
X0360218Y0150389D01*
X0360251Y0150540D01*
X0360289Y0150690D01*
X0360330Y0150839D01*
X0360375Y0150987D01*
X0360424Y0151133D01*
X0360477Y0151279D01*
X0360533Y0151422D01*
X0360593Y0151565D01*
X0360657Y0151705D01*
X0360724Y0151845D01*
X0360795Y0151982D01*
X0360869Y0152117D01*
X0360947Y0152251D01*
X0361028Y0152382D01*
X0361113Y0152511D01*
X0361201Y0152639D01*
X0361292Y0152763D01*
X0361386Y0152886D01*
X0361484Y0153006D01*
X0361584Y0153123D01*
X0361688Y0153238D01*
X0361794Y0153350D01*
X0361903Y0153459D01*
X0362015Y0153565D01*
X0362130Y0153669D01*
X0362247Y0153769D01*
X0362367Y0153867D01*
X0362490Y0153961D01*
X0362614Y0154052D01*
X0362742Y0154140D01*
X0362871Y0154225D01*
X0363002Y0154306D01*
X0363136Y0154384D01*
X0363271Y0154458D01*
X0363408Y0154529D01*
X0363548Y0154596D01*
X0363688Y0154660D01*
X0363831Y0154720D01*
X0363974Y0154776D01*
X0364120Y0154829D01*
X0364266Y0154878D01*
X0364414Y0154923D01*
X0364563Y0154964D01*
X0364713Y0155002D01*
X0364864Y0155035D01*
X0365015Y0155065D01*
X0365168Y0155091D01*
X0365321Y0155112D01*
X0365474Y0155130D01*
X0365628Y0155144D01*
X0365782Y0155154D01*
X0365937Y0155160D01*
X0366091Y0155162D01*
X0366245Y0155160D01*
X0366400Y0155154D01*
X0366554Y0155144D01*
X0366708Y0155130D01*
X0366861Y0155112D01*
X0367014Y0155091D01*
X0367167Y0155065D01*
X0367318Y0155035D01*
X0367469Y0155002D01*
X0367619Y0154964D01*
X0367768Y0154923D01*
X0367916Y0154878D01*
X0368062Y0154829D01*
X0368208Y0154776D01*
X0368351Y0154720D01*
X0368494Y0154660D01*
X0368634Y0154596D01*
X0368774Y0154529D01*
X0368911Y0154458D01*
X0369046Y0154384D01*
X0369180Y0154306D01*
X0369311Y0154225D01*
X0369440Y0154140D01*
X0369568Y0154052D01*
X0369692Y0153961D01*
X0369815Y0153867D01*
X0369935Y0153769D01*
X0370052Y0153669D01*
X0370167Y0153565D01*
X0370279Y0153459D01*
X0370388Y0153350D01*
X0370494Y0153238D01*
X0370598Y0153123D01*
X0370698Y0153006D01*
X0370796Y0152886D01*
X0370890Y0152763D01*
X0370981Y0152639D01*
X0371069Y0152511D01*
X0371154Y0152382D01*
X0371235Y0152251D01*
X0371313Y0152117D01*
X0371387Y0151982D01*
X0371458Y0151845D01*
X0371525Y0151705D01*
X0371589Y0151565D01*
X0371649Y0151422D01*
X0371705Y0151279D01*
X0371758Y0151133D01*
X0371807Y0150987D01*
X0371852Y0150839D01*
X0371893Y0150690D01*
X0371931Y0150540D01*
X0371964Y0150389D01*
X0371994Y0150238D01*
X0372020Y0150085D01*
X0372041Y0149932D01*
X0372059Y0149779D01*
X0372073Y0149625D01*
X0372083Y0149471D01*
X0372089Y0149316D01*
X0372091Y0149162D01*
X0372089Y0149008D01*
X0372083Y0148853D01*
X0372073Y0148699D01*
X0372059Y0148545D01*
X0372041Y0148392D01*
X0372020Y0148239D01*
X0371994Y0148086D01*
X0371964Y0147935D01*
X0371931Y0147784D01*
X0371893Y0147634D01*
X0371852Y0147485D01*
X0371807Y0147337D01*
X0371758Y0147191D01*
X0371705Y0147045D01*
X0371649Y0146902D01*
X0371589Y0146759D01*
X0371525Y0146619D01*
X0371458Y0146479D01*
X0371387Y0146342D01*
X0371313Y0146207D01*
X0371235Y0146073D01*
X0371154Y0145942D01*
X0371069Y0145813D01*
X0370981Y0145685D01*
X0370890Y0145561D01*
X0370796Y0145438D01*
X0370698Y0145318D01*
X0370598Y0145201D01*
X0370494Y0145086D01*
X0370388Y0144974D01*
X0370279Y0144865D01*
X0370167Y0144759D01*
X0370052Y0144655D01*
X0369935Y0144555D01*
X0369815Y0144457D01*
X0369692Y0144363D01*
X0369568Y0144272D01*
X0369440Y0144184D01*
X0369311Y0144099D01*
X0369180Y0144018D01*
X0369046Y0143940D01*
X0368911Y0143866D01*
X0368774Y0143795D01*
X0368634Y0143728D01*
X0368494Y0143664D01*
X0368351Y0143604D01*
X0368208Y0143548D01*
X0368062Y0143495D01*
X0367916Y0143446D01*
X0367768Y0143401D01*
X0367619Y0143360D01*
X0367469Y0143322D01*
X0367318Y0143289D01*
X0367167Y0143259D01*
X0367014Y0143233D01*
X0366861Y0143212D01*
X0366708Y0143194D01*
X0366554Y0143180D01*
X0366400Y0143170D01*
X0366245Y0143164D01*
X0366091Y0143162D01*
X0365937Y0143164D01*
X0365782Y0143170D01*
X0365628Y0143180D01*
X0365474Y0143194D01*
X0365321Y0143212D01*
X0365168Y0143233D01*
X0365015Y0143259D01*
X0364864Y0143289D01*
X0364713Y0143322D01*
X0364563Y0143360D01*
X0364414Y0143401D01*
X0364266Y0143446D01*
X0364120Y0143495D01*
X0363974Y0143548D01*
X0363831Y0143604D01*
X0363688Y0143664D01*
X0363548Y0143728D01*
X0363408Y0143795D01*
X0363271Y0143866D01*
X0363136Y0143940D01*
X0363002Y0144018D01*
X0362871Y0144099D01*
X0362742Y0144184D01*
X0362614Y0144272D01*
X0362490Y0144363D01*
X0362367Y0144457D01*
X0362247Y0144555D01*
X0362130Y0144655D01*
X0362015Y0144759D01*
X0361903Y0144865D01*
X0361794Y0144974D01*
X0361688Y0145086D01*
X0361584Y0145201D01*
X0361484Y0145318D01*
X0361386Y0145438D01*
X0361292Y0145561D01*
X0361201Y0145685D01*
X0361113Y0145813D01*
X0361028Y0145942D01*
X0360947Y0146073D01*
X0360869Y0146207D01*
X0360795Y0146342D01*
X0360724Y0146479D01*
X0360657Y0146619D01*
X0360593Y0146759D01*
X0360533Y0146902D01*
X0360477Y0147045D01*
X0360424Y0147191D01*
X0360375Y0147337D01*
X0360330Y0147485D01*
X0360289Y0147634D01*
X0360251Y0147784D01*
X0360218Y0147935D01*
X0360188Y0148086D01*
X0360162Y0148239D01*
X0360141Y0148392D01*
X0360123Y0148545D01*
X0360109Y0148699D01*
X0360099Y0148853D01*
X0360093Y0149008D01*
X0360091Y0149162D01*
X0360209Y0016209D02*
X0360211Y0016363D01*
X0360217Y0016518D01*
X0360227Y0016672D01*
X0360241Y0016826D01*
X0360259Y0016979D01*
X0360280Y0017132D01*
X0360306Y0017285D01*
X0360336Y0017436D01*
X0360369Y0017587D01*
X0360407Y0017737D01*
X0360448Y0017886D01*
X0360493Y0018034D01*
X0360542Y0018180D01*
X0360595Y0018326D01*
X0360651Y0018469D01*
X0360711Y0018612D01*
X0360775Y0018752D01*
X0360842Y0018892D01*
X0360913Y0019029D01*
X0360987Y0019164D01*
X0361065Y0019298D01*
X0361146Y0019429D01*
X0361231Y0019558D01*
X0361319Y0019686D01*
X0361410Y0019810D01*
X0361504Y0019933D01*
X0361602Y0020053D01*
X0361702Y0020170D01*
X0361806Y0020285D01*
X0361912Y0020397D01*
X0362021Y0020506D01*
X0362133Y0020612D01*
X0362248Y0020716D01*
X0362365Y0020816D01*
X0362485Y0020914D01*
X0362608Y0021008D01*
X0362732Y0021099D01*
X0362860Y0021187D01*
X0362989Y0021272D01*
X0363120Y0021353D01*
X0363254Y0021431D01*
X0363389Y0021505D01*
X0363526Y0021576D01*
X0363666Y0021643D01*
X0363806Y0021707D01*
X0363949Y0021767D01*
X0364092Y0021823D01*
X0364238Y0021876D01*
X0364384Y0021925D01*
X0364532Y0021970D01*
X0364681Y0022011D01*
X0364831Y0022049D01*
X0364982Y0022082D01*
X0365133Y0022112D01*
X0365286Y0022138D01*
X0365439Y0022159D01*
X0365592Y0022177D01*
X0365746Y0022191D01*
X0365900Y0022201D01*
X0366055Y0022207D01*
X0366209Y0022209D01*
X0366363Y0022207D01*
X0366518Y0022201D01*
X0366672Y0022191D01*
X0366826Y0022177D01*
X0366979Y0022159D01*
X0367132Y0022138D01*
X0367285Y0022112D01*
X0367436Y0022082D01*
X0367587Y0022049D01*
X0367737Y0022011D01*
X0367886Y0021970D01*
X0368034Y0021925D01*
X0368180Y0021876D01*
X0368326Y0021823D01*
X0368469Y0021767D01*
X0368612Y0021707D01*
X0368752Y0021643D01*
X0368892Y0021576D01*
X0369029Y0021505D01*
X0369164Y0021431D01*
X0369298Y0021353D01*
X0369429Y0021272D01*
X0369558Y0021187D01*
X0369686Y0021099D01*
X0369810Y0021008D01*
X0369933Y0020914D01*
X0370053Y0020816D01*
X0370170Y0020716D01*
X0370285Y0020612D01*
X0370397Y0020506D01*
X0370506Y0020397D01*
X0370612Y0020285D01*
X0370716Y0020170D01*
X0370816Y0020053D01*
X0370914Y0019933D01*
X0371008Y0019810D01*
X0371099Y0019686D01*
X0371187Y0019558D01*
X0371272Y0019429D01*
X0371353Y0019298D01*
X0371431Y0019164D01*
X0371505Y0019029D01*
X0371576Y0018892D01*
X0371643Y0018752D01*
X0371707Y0018612D01*
X0371767Y0018469D01*
X0371823Y0018326D01*
X0371876Y0018180D01*
X0371925Y0018034D01*
X0371970Y0017886D01*
X0372011Y0017737D01*
X0372049Y0017587D01*
X0372082Y0017436D01*
X0372112Y0017285D01*
X0372138Y0017132D01*
X0372159Y0016979D01*
X0372177Y0016826D01*
X0372191Y0016672D01*
X0372201Y0016518D01*
X0372207Y0016363D01*
X0372209Y0016209D01*
X0372207Y0016055D01*
X0372201Y0015900D01*
X0372191Y0015746D01*
X0372177Y0015592D01*
X0372159Y0015439D01*
X0372138Y0015286D01*
X0372112Y0015133D01*
X0372082Y0014982D01*
X0372049Y0014831D01*
X0372011Y0014681D01*
X0371970Y0014532D01*
X0371925Y0014384D01*
X0371876Y0014238D01*
X0371823Y0014092D01*
X0371767Y0013949D01*
X0371707Y0013806D01*
X0371643Y0013666D01*
X0371576Y0013526D01*
X0371505Y0013389D01*
X0371431Y0013254D01*
X0371353Y0013120D01*
X0371272Y0012989D01*
X0371187Y0012860D01*
X0371099Y0012732D01*
X0371008Y0012608D01*
X0370914Y0012485D01*
X0370816Y0012365D01*
X0370716Y0012248D01*
X0370612Y0012133D01*
X0370506Y0012021D01*
X0370397Y0011912D01*
X0370285Y0011806D01*
X0370170Y0011702D01*
X0370053Y0011602D01*
X0369933Y0011504D01*
X0369810Y0011410D01*
X0369686Y0011319D01*
X0369558Y0011231D01*
X0369429Y0011146D01*
X0369298Y0011065D01*
X0369164Y0010987D01*
X0369029Y0010913D01*
X0368892Y0010842D01*
X0368752Y0010775D01*
X0368612Y0010711D01*
X0368469Y0010651D01*
X0368326Y0010595D01*
X0368180Y0010542D01*
X0368034Y0010493D01*
X0367886Y0010448D01*
X0367737Y0010407D01*
X0367587Y0010369D01*
X0367436Y0010336D01*
X0367285Y0010306D01*
X0367132Y0010280D01*
X0366979Y0010259D01*
X0366826Y0010241D01*
X0366672Y0010227D01*
X0366518Y0010217D01*
X0366363Y0010211D01*
X0366209Y0010209D01*
X0366055Y0010211D01*
X0365900Y0010217D01*
X0365746Y0010227D01*
X0365592Y0010241D01*
X0365439Y0010259D01*
X0365286Y0010280D01*
X0365133Y0010306D01*
X0364982Y0010336D01*
X0364831Y0010369D01*
X0364681Y0010407D01*
X0364532Y0010448D01*
X0364384Y0010493D01*
X0364238Y0010542D01*
X0364092Y0010595D01*
X0363949Y0010651D01*
X0363806Y0010711D01*
X0363666Y0010775D01*
X0363526Y0010842D01*
X0363389Y0010913D01*
X0363254Y0010987D01*
X0363120Y0011065D01*
X0362989Y0011146D01*
X0362860Y0011231D01*
X0362732Y0011319D01*
X0362608Y0011410D01*
X0362485Y0011504D01*
X0362365Y0011602D01*
X0362248Y0011702D01*
X0362133Y0011806D01*
X0362021Y0011912D01*
X0361912Y0012021D01*
X0361806Y0012133D01*
X0361702Y0012248D01*
X0361602Y0012365D01*
X0361504Y0012485D01*
X0361410Y0012608D01*
X0361319Y0012732D01*
X0361231Y0012860D01*
X0361146Y0012989D01*
X0361065Y0013120D01*
X0360987Y0013254D01*
X0360913Y0013389D01*
X0360842Y0013526D01*
X0360775Y0013666D01*
X0360711Y0013806D01*
X0360651Y0013949D01*
X0360595Y0014092D01*
X0360542Y0014238D01*
X0360493Y0014384D01*
X0360448Y0014532D01*
X0360407Y0014681D01*
X0360369Y0014831D01*
X0360336Y0014982D01*
X0360306Y0015133D01*
X0360280Y0015286D01*
X0360259Y0015439D01*
X0360241Y0015592D01*
X0360227Y0015746D01*
X0360217Y0015900D01*
X0360211Y0016055D01*
X0360209Y0016209D01*
X0008831Y0015422D02*
X0008833Y0015576D01*
X0008839Y0015731D01*
X0008849Y0015885D01*
X0008863Y0016039D01*
X0008881Y0016192D01*
X0008902Y0016345D01*
X0008928Y0016498D01*
X0008958Y0016649D01*
X0008991Y0016800D01*
X0009029Y0016950D01*
X0009070Y0017099D01*
X0009115Y0017247D01*
X0009164Y0017393D01*
X0009217Y0017539D01*
X0009273Y0017682D01*
X0009333Y0017825D01*
X0009397Y0017965D01*
X0009464Y0018105D01*
X0009535Y0018242D01*
X0009609Y0018377D01*
X0009687Y0018511D01*
X0009768Y0018642D01*
X0009853Y0018771D01*
X0009941Y0018899D01*
X0010032Y0019023D01*
X0010126Y0019146D01*
X0010224Y0019266D01*
X0010324Y0019383D01*
X0010428Y0019498D01*
X0010534Y0019610D01*
X0010643Y0019719D01*
X0010755Y0019825D01*
X0010870Y0019929D01*
X0010987Y0020029D01*
X0011107Y0020127D01*
X0011230Y0020221D01*
X0011354Y0020312D01*
X0011482Y0020400D01*
X0011611Y0020485D01*
X0011742Y0020566D01*
X0011876Y0020644D01*
X0012011Y0020718D01*
X0012148Y0020789D01*
X0012288Y0020856D01*
X0012428Y0020920D01*
X0012571Y0020980D01*
X0012714Y0021036D01*
X0012860Y0021089D01*
X0013006Y0021138D01*
X0013154Y0021183D01*
X0013303Y0021224D01*
X0013453Y0021262D01*
X0013604Y0021295D01*
X0013755Y0021325D01*
X0013908Y0021351D01*
X0014061Y0021372D01*
X0014214Y0021390D01*
X0014368Y0021404D01*
X0014522Y0021414D01*
X0014677Y0021420D01*
X0014831Y0021422D01*
X0014985Y0021420D01*
X0015140Y0021414D01*
X0015294Y0021404D01*
X0015448Y0021390D01*
X0015601Y0021372D01*
X0015754Y0021351D01*
X0015907Y0021325D01*
X0016058Y0021295D01*
X0016209Y0021262D01*
X0016359Y0021224D01*
X0016508Y0021183D01*
X0016656Y0021138D01*
X0016802Y0021089D01*
X0016948Y0021036D01*
X0017091Y0020980D01*
X0017234Y0020920D01*
X0017374Y0020856D01*
X0017514Y0020789D01*
X0017651Y0020718D01*
X0017786Y0020644D01*
X0017920Y0020566D01*
X0018051Y0020485D01*
X0018180Y0020400D01*
X0018308Y0020312D01*
X0018432Y0020221D01*
X0018555Y0020127D01*
X0018675Y0020029D01*
X0018792Y0019929D01*
X0018907Y0019825D01*
X0019019Y0019719D01*
X0019128Y0019610D01*
X0019234Y0019498D01*
X0019338Y0019383D01*
X0019438Y0019266D01*
X0019536Y0019146D01*
X0019630Y0019023D01*
X0019721Y0018899D01*
X0019809Y0018771D01*
X0019894Y0018642D01*
X0019975Y0018511D01*
X0020053Y0018377D01*
X0020127Y0018242D01*
X0020198Y0018105D01*
X0020265Y0017965D01*
X0020329Y0017825D01*
X0020389Y0017682D01*
X0020445Y0017539D01*
X0020498Y0017393D01*
X0020547Y0017247D01*
X0020592Y0017099D01*
X0020633Y0016950D01*
X0020671Y0016800D01*
X0020704Y0016649D01*
X0020734Y0016498D01*
X0020760Y0016345D01*
X0020781Y0016192D01*
X0020799Y0016039D01*
X0020813Y0015885D01*
X0020823Y0015731D01*
X0020829Y0015576D01*
X0020831Y0015422D01*
X0020829Y0015268D01*
X0020823Y0015113D01*
X0020813Y0014959D01*
X0020799Y0014805D01*
X0020781Y0014652D01*
X0020760Y0014499D01*
X0020734Y0014346D01*
X0020704Y0014195D01*
X0020671Y0014044D01*
X0020633Y0013894D01*
X0020592Y0013745D01*
X0020547Y0013597D01*
X0020498Y0013451D01*
X0020445Y0013305D01*
X0020389Y0013162D01*
X0020329Y0013019D01*
X0020265Y0012879D01*
X0020198Y0012739D01*
X0020127Y0012602D01*
X0020053Y0012467D01*
X0019975Y0012333D01*
X0019894Y0012202D01*
X0019809Y0012073D01*
X0019721Y0011945D01*
X0019630Y0011821D01*
X0019536Y0011698D01*
X0019438Y0011578D01*
X0019338Y0011461D01*
X0019234Y0011346D01*
X0019128Y0011234D01*
X0019019Y0011125D01*
X0018907Y0011019D01*
X0018792Y0010915D01*
X0018675Y0010815D01*
X0018555Y0010717D01*
X0018432Y0010623D01*
X0018308Y0010532D01*
X0018180Y0010444D01*
X0018051Y0010359D01*
X0017920Y0010278D01*
X0017786Y0010200D01*
X0017651Y0010126D01*
X0017514Y0010055D01*
X0017374Y0009988D01*
X0017234Y0009924D01*
X0017091Y0009864D01*
X0016948Y0009808D01*
X0016802Y0009755D01*
X0016656Y0009706D01*
X0016508Y0009661D01*
X0016359Y0009620D01*
X0016209Y0009582D01*
X0016058Y0009549D01*
X0015907Y0009519D01*
X0015754Y0009493D01*
X0015601Y0009472D01*
X0015448Y0009454D01*
X0015294Y0009440D01*
X0015140Y0009430D01*
X0014985Y0009424D01*
X0014831Y0009422D01*
X0014677Y0009424D01*
X0014522Y0009430D01*
X0014368Y0009440D01*
X0014214Y0009454D01*
X0014061Y0009472D01*
X0013908Y0009493D01*
X0013755Y0009519D01*
X0013604Y0009549D01*
X0013453Y0009582D01*
X0013303Y0009620D01*
X0013154Y0009661D01*
X0013006Y0009706D01*
X0012860Y0009755D01*
X0012714Y0009808D01*
X0012571Y0009864D01*
X0012428Y0009924D01*
X0012288Y0009988D01*
X0012148Y0010055D01*
X0012011Y0010126D01*
X0011876Y0010200D01*
X0011742Y0010278D01*
X0011611Y0010359D01*
X0011482Y0010444D01*
X0011354Y0010532D01*
X0011230Y0010623D01*
X0011107Y0010717D01*
X0010987Y0010815D01*
X0010870Y0010915D01*
X0010755Y0011019D01*
X0010643Y0011125D01*
X0010534Y0011234D01*
X0010428Y0011346D01*
X0010324Y0011461D01*
X0010224Y0011578D01*
X0010126Y0011698D01*
X0010032Y0011821D01*
X0009941Y0011945D01*
X0009853Y0012073D01*
X0009768Y0012202D01*
X0009687Y0012333D01*
X0009609Y0012467D01*
X0009535Y0012602D01*
X0009464Y0012739D01*
X0009397Y0012879D01*
X0009333Y0013019D01*
X0009273Y0013162D01*
X0009217Y0013305D01*
X0009164Y0013451D01*
X0009115Y0013597D01*
X0009070Y0013745D01*
X0009029Y0013894D01*
X0008991Y0014044D01*
X0008958Y0014195D01*
X0008928Y0014346D01*
X0008902Y0014499D01*
X0008881Y0014652D01*
X0008863Y0014805D01*
X0008849Y0014959D01*
X0008839Y0015113D01*
X0008833Y0015268D01*
X0008831Y0015422D01*
X0008831Y0149162D02*
X0008833Y0149316D01*
X0008839Y0149471D01*
X0008849Y0149625D01*
X0008863Y0149779D01*
X0008881Y0149932D01*
X0008902Y0150085D01*
X0008928Y0150238D01*
X0008958Y0150389D01*
X0008991Y0150540D01*
X0009029Y0150690D01*
X0009070Y0150839D01*
X0009115Y0150987D01*
X0009164Y0151133D01*
X0009217Y0151279D01*
X0009273Y0151422D01*
X0009333Y0151565D01*
X0009397Y0151705D01*
X0009464Y0151845D01*
X0009535Y0151982D01*
X0009609Y0152117D01*
X0009687Y0152251D01*
X0009768Y0152382D01*
X0009853Y0152511D01*
X0009941Y0152639D01*
X0010032Y0152763D01*
X0010126Y0152886D01*
X0010224Y0153006D01*
X0010324Y0153123D01*
X0010428Y0153238D01*
X0010534Y0153350D01*
X0010643Y0153459D01*
X0010755Y0153565D01*
X0010870Y0153669D01*
X0010987Y0153769D01*
X0011107Y0153867D01*
X0011230Y0153961D01*
X0011354Y0154052D01*
X0011482Y0154140D01*
X0011611Y0154225D01*
X0011742Y0154306D01*
X0011876Y0154384D01*
X0012011Y0154458D01*
X0012148Y0154529D01*
X0012288Y0154596D01*
X0012428Y0154660D01*
X0012571Y0154720D01*
X0012714Y0154776D01*
X0012860Y0154829D01*
X0013006Y0154878D01*
X0013154Y0154923D01*
X0013303Y0154964D01*
X0013453Y0155002D01*
X0013604Y0155035D01*
X0013755Y0155065D01*
X0013908Y0155091D01*
X0014061Y0155112D01*
X0014214Y0155130D01*
X0014368Y0155144D01*
X0014522Y0155154D01*
X0014677Y0155160D01*
X0014831Y0155162D01*
X0014985Y0155160D01*
X0015140Y0155154D01*
X0015294Y0155144D01*
X0015448Y0155130D01*
X0015601Y0155112D01*
X0015754Y0155091D01*
X0015907Y0155065D01*
X0016058Y0155035D01*
X0016209Y0155002D01*
X0016359Y0154964D01*
X0016508Y0154923D01*
X0016656Y0154878D01*
X0016802Y0154829D01*
X0016948Y0154776D01*
X0017091Y0154720D01*
X0017234Y0154660D01*
X0017374Y0154596D01*
X0017514Y0154529D01*
X0017651Y0154458D01*
X0017786Y0154384D01*
X0017920Y0154306D01*
X0018051Y0154225D01*
X0018180Y0154140D01*
X0018308Y0154052D01*
X0018432Y0153961D01*
X0018555Y0153867D01*
X0018675Y0153769D01*
X0018792Y0153669D01*
X0018907Y0153565D01*
X0019019Y0153459D01*
X0019128Y0153350D01*
X0019234Y0153238D01*
X0019338Y0153123D01*
X0019438Y0153006D01*
X0019536Y0152886D01*
X0019630Y0152763D01*
X0019721Y0152639D01*
X0019809Y0152511D01*
X0019894Y0152382D01*
X0019975Y0152251D01*
X0020053Y0152117D01*
X0020127Y0151982D01*
X0020198Y0151845D01*
X0020265Y0151705D01*
X0020329Y0151565D01*
X0020389Y0151422D01*
X0020445Y0151279D01*
X0020498Y0151133D01*
X0020547Y0150987D01*
X0020592Y0150839D01*
X0020633Y0150690D01*
X0020671Y0150540D01*
X0020704Y0150389D01*
X0020734Y0150238D01*
X0020760Y0150085D01*
X0020781Y0149932D01*
X0020799Y0149779D01*
X0020813Y0149625D01*
X0020823Y0149471D01*
X0020829Y0149316D01*
X0020831Y0149162D01*
X0020829Y0149008D01*
X0020823Y0148853D01*
X0020813Y0148699D01*
X0020799Y0148545D01*
X0020781Y0148392D01*
X0020760Y0148239D01*
X0020734Y0148086D01*
X0020704Y0147935D01*
X0020671Y0147784D01*
X0020633Y0147634D01*
X0020592Y0147485D01*
X0020547Y0147337D01*
X0020498Y0147191D01*
X0020445Y0147045D01*
X0020389Y0146902D01*
X0020329Y0146759D01*
X0020265Y0146619D01*
X0020198Y0146479D01*
X0020127Y0146342D01*
X0020053Y0146207D01*
X0019975Y0146073D01*
X0019894Y0145942D01*
X0019809Y0145813D01*
X0019721Y0145685D01*
X0019630Y0145561D01*
X0019536Y0145438D01*
X0019438Y0145318D01*
X0019338Y0145201D01*
X0019234Y0145086D01*
X0019128Y0144974D01*
X0019019Y0144865D01*
X0018907Y0144759D01*
X0018792Y0144655D01*
X0018675Y0144555D01*
X0018555Y0144457D01*
X0018432Y0144363D01*
X0018308Y0144272D01*
X0018180Y0144184D01*
X0018051Y0144099D01*
X0017920Y0144018D01*
X0017786Y0143940D01*
X0017651Y0143866D01*
X0017514Y0143795D01*
X0017374Y0143728D01*
X0017234Y0143664D01*
X0017091Y0143604D01*
X0016948Y0143548D01*
X0016802Y0143495D01*
X0016656Y0143446D01*
X0016508Y0143401D01*
X0016359Y0143360D01*
X0016209Y0143322D01*
X0016058Y0143289D01*
X0015907Y0143259D01*
X0015754Y0143233D01*
X0015601Y0143212D01*
X0015448Y0143194D01*
X0015294Y0143180D01*
X0015140Y0143170D01*
X0014985Y0143164D01*
X0014831Y0143162D01*
X0014677Y0143164D01*
X0014522Y0143170D01*
X0014368Y0143180D01*
X0014214Y0143194D01*
X0014061Y0143212D01*
X0013908Y0143233D01*
X0013755Y0143259D01*
X0013604Y0143289D01*
X0013453Y0143322D01*
X0013303Y0143360D01*
X0013154Y0143401D01*
X0013006Y0143446D01*
X0012860Y0143495D01*
X0012714Y0143548D01*
X0012571Y0143604D01*
X0012428Y0143664D01*
X0012288Y0143728D01*
X0012148Y0143795D01*
X0012011Y0143866D01*
X0011876Y0143940D01*
X0011742Y0144018D01*
X0011611Y0144099D01*
X0011482Y0144184D01*
X0011354Y0144272D01*
X0011230Y0144363D01*
X0011107Y0144457D01*
X0010987Y0144555D01*
X0010870Y0144655D01*
X0010755Y0144759D01*
X0010643Y0144865D01*
X0010534Y0144974D01*
X0010428Y0145086D01*
X0010324Y0145201D01*
X0010224Y0145318D01*
X0010126Y0145438D01*
X0010032Y0145561D01*
X0009941Y0145685D01*
X0009853Y0145813D01*
X0009768Y0145942D01*
X0009687Y0146073D01*
X0009609Y0146207D01*
X0009535Y0146342D01*
X0009464Y0146479D01*
X0009397Y0146619D01*
X0009333Y0146759D01*
X0009273Y0146902D01*
X0009217Y0147045D01*
X0009164Y0147191D01*
X0009115Y0147337D01*
X0009070Y0147485D01*
X0009029Y0147634D01*
X0008991Y0147784D01*
X0008958Y0147935D01*
X0008928Y0148086D01*
X0008902Y0148239D01*
X0008881Y0148392D01*
X0008863Y0148545D01*
X0008849Y0148699D01*
X0008839Y0148853D01*
X0008833Y0149008D01*
X0008831Y0149162D01*
D13*
X0201918Y0137745D03*
X0221938Y0137548D03*
X0241505Y0137706D03*
X0261918Y0137745D03*
X0281820Y0137745D03*
X0301721Y0137351D03*
X0301721Y0126328D03*
X0281820Y0126721D03*
X0261918Y0126721D03*
X0241505Y0126682D03*
X0221938Y0126524D03*
X0201918Y0126721D03*
D14*
X0201800Y0021800D03*
X0181800Y0021800D03*
X0221800Y0021800D03*
X0241800Y0021800D03*
X0261800Y0021800D03*
X0281800Y0021800D03*
X0301800Y0021800D03*
X0321800Y0021800D03*
X0341800Y0021800D03*
D15*
X0341800Y0081800D01*
X0336500Y0081726D02*
X0324200Y0081726D01*
X0324200Y0083324D02*
X0336695Y0083324D01*
X0336500Y0082854D02*
X0336500Y0080746D01*
X0337307Y0078798D01*
X0338798Y0077307D01*
X0339400Y0077057D01*
X0339400Y0029573D01*
X0337212Y0028667D01*
X0334933Y0026388D01*
X0333700Y0023411D01*
X0333700Y0020189D01*
X0334933Y0017212D01*
X0337212Y0014933D01*
X0340189Y0013700D01*
X0343411Y0013700D01*
X0346388Y0014933D01*
X0348667Y0017212D01*
X0349900Y0020189D01*
X0349900Y0023411D01*
X0348667Y0026388D01*
X0346388Y0028667D01*
X0344200Y0029573D01*
X0344200Y0077057D01*
X0344802Y0077307D01*
X0346293Y0078798D01*
X0347100Y0080746D01*
X0347100Y0082854D01*
X0346293Y0084802D01*
X0344802Y0086293D01*
X0342854Y0087100D01*
X0340746Y0087100D01*
X0338798Y0086293D01*
X0337307Y0084802D01*
X0336500Y0082854D01*
X0337427Y0084923D02*
X0324200Y0084923D01*
X0324200Y0086521D02*
X0339348Y0086521D01*
X0344252Y0086521D02*
X0377005Y0086521D01*
X0377005Y0084923D02*
X0346173Y0084923D01*
X0346905Y0083324D02*
X0377005Y0083324D01*
X0377005Y0081726D02*
X0347100Y0081726D01*
X0346844Y0080127D02*
X0377005Y0080127D01*
X0377005Y0078529D02*
X0346024Y0078529D01*
X0344200Y0076930D02*
X0377005Y0076930D01*
X0377005Y0075332D02*
X0344200Y0075332D01*
X0344200Y0073733D02*
X0377005Y0073733D01*
X0377005Y0072134D02*
X0344200Y0072134D01*
X0344200Y0070536D02*
X0377005Y0070536D01*
X0377005Y0068937D02*
X0344200Y0068937D01*
X0344200Y0067339D02*
X0377005Y0067339D01*
X0377005Y0065740D02*
X0344200Y0065740D01*
X0344200Y0064142D02*
X0377005Y0064142D01*
X0377005Y0062543D02*
X0344200Y0062543D01*
X0344200Y0060945D02*
X0377005Y0060945D01*
X0377005Y0059346D02*
X0344200Y0059346D01*
X0344200Y0057748D02*
X0377005Y0057748D01*
X0377005Y0056149D02*
X0344200Y0056149D01*
X0344200Y0054551D02*
X0377005Y0054551D01*
X0377005Y0052952D02*
X0344200Y0052952D01*
X0344200Y0051354D02*
X0377005Y0051354D01*
X0377005Y0049755D02*
X0344200Y0049755D01*
X0344200Y0048157D02*
X0377005Y0048157D01*
X0377005Y0046558D02*
X0344200Y0046558D01*
X0344200Y0044960D02*
X0377005Y0044960D01*
X0377005Y0043361D02*
X0344200Y0043361D01*
X0344200Y0041763D02*
X0377005Y0041763D01*
X0377005Y0040164D02*
X0344200Y0040164D01*
X0344200Y0038566D02*
X0377005Y0038566D01*
X0377005Y0036967D02*
X0344200Y0036967D01*
X0344200Y0035369D02*
X0377005Y0035369D01*
X0377005Y0033770D02*
X0344200Y0033770D01*
X0344200Y0032172D02*
X0377005Y0032172D01*
X0377005Y0030573D02*
X0344200Y0030573D01*
X0345645Y0028975D02*
X0377005Y0028975D01*
X0377005Y0027376D02*
X0347679Y0027376D01*
X0348920Y0025778D02*
X0377005Y0025778D01*
X0377005Y0024179D02*
X0369180Y0024179D01*
X0367900Y0024709D02*
X0364519Y0024709D01*
X0361395Y0023415D01*
X0361395Y0023415D01*
X0359004Y0021024D01*
X0359003Y0021024D02*
X0357709Y0017900D01*
X0357709Y0014519D01*
X0359003Y0011395D01*
X0359003Y0011395D01*
X0361395Y0009003D01*
X0364519Y0007709D01*
X0365712Y0007709D01*
X0367900Y0007709D01*
X0371024Y0009003D01*
X0371024Y0009003D01*
X0373415Y0011395D01*
X0374709Y0014519D01*
X0374709Y0017900D01*
X0373415Y0021024D01*
X0371024Y0023415D01*
X0367900Y0024709D01*
X0371024Y0023415D02*
X0371024Y0023415D01*
X0371859Y0022581D02*
X0377005Y0022581D01*
X0377005Y0020982D02*
X0373433Y0020982D01*
X0373415Y0021024D02*
X0373415Y0021024D01*
X0374095Y0019384D02*
X0377005Y0019384D01*
X0377005Y0017785D02*
X0374709Y0017785D01*
X0374709Y0016187D02*
X0377005Y0016187D01*
X0377005Y0014588D02*
X0374709Y0014588D01*
X0374076Y0012990D02*
X0377005Y0012990D01*
X0377005Y0011391D02*
X0373412Y0011391D01*
X0373415Y0011395D02*
X0373415Y0011395D01*
X0371813Y0009793D02*
X0377005Y0009793D01*
X0377005Y0008194D02*
X0369070Y0008194D01*
X0363349Y0008194D02*
X0019593Y0008194D01*
X0019646Y0008216D02*
X0019646Y0008216D01*
X0016522Y0006922D01*
X0014334Y0006922D01*
X0013141Y0006922D01*
X0010017Y0008216D01*
X0010017Y0008216D01*
X0007626Y0010607D01*
X0007626Y0010607D01*
X0006331Y0013731D01*
X0006331Y0017113D01*
X0007626Y0020237D01*
X0007626Y0020237D01*
X0010017Y0022628D01*
X0010017Y0022628D01*
X0013141Y0023922D01*
X0016522Y0023922D01*
X0019646Y0022628D01*
X0019646Y0022628D01*
X0022037Y0020237D01*
X0022037Y0020237D01*
X0023331Y0017113D01*
X0023331Y0013731D01*
X0022037Y0010607D01*
X0022037Y0010607D01*
X0019646Y0008216D01*
X0021223Y0009793D02*
X0110413Y0009793D01*
X0110441Y0009765D02*
X0111323Y0009400D01*
X0232277Y0009400D01*
X0233159Y0009765D01*
X0233835Y0010441D01*
X0234200Y0011323D01*
X0234200Y0018982D01*
X0234933Y0017212D01*
X0237212Y0014933D01*
X0240189Y0013700D01*
X0243411Y0013700D01*
X0246388Y0014933D01*
X0248667Y0017212D01*
X0249400Y0018982D01*
X0249400Y0011323D01*
X0249765Y0010441D01*
X0250441Y0009765D01*
X0251323Y0009400D01*
X0312277Y0009400D01*
X0313159Y0009765D01*
X0313835Y0010441D01*
X0314200Y0011323D01*
X0314200Y0018982D01*
X0314933Y0017212D01*
X0317212Y0014933D01*
X0320189Y0013700D01*
X0323411Y0013700D01*
X0326388Y0014933D01*
X0328667Y0017212D01*
X0329900Y0020189D01*
X0329900Y0023411D01*
X0328667Y0026388D01*
X0326388Y0028667D01*
X0324200Y0029573D01*
X0324200Y0119400D01*
X0337057Y0119400D01*
X0337307Y0118798D01*
X0338798Y0117307D01*
X0340746Y0116500D01*
X0342854Y0116500D01*
X0344802Y0117307D01*
X0346293Y0118798D01*
X0347100Y0120746D01*
X0347100Y0122854D01*
X0346293Y0124802D01*
X0344802Y0126293D01*
X0342854Y0127100D01*
X0340746Y0127100D01*
X0338798Y0126293D01*
X0337307Y0124802D01*
X0337057Y0124200D01*
X0321323Y0124200D01*
X0320441Y0123835D01*
X0319765Y0123159D01*
X0319400Y0122277D01*
X0319400Y0029573D01*
X0317212Y0028667D01*
X0314933Y0026388D01*
X0314200Y0024618D01*
X0314200Y0152277D01*
X0313835Y0153159D01*
X0313159Y0153835D01*
X0312277Y0154200D01*
X0041323Y0154200D01*
X0040441Y0153835D01*
X0020441Y0133835D01*
X0020441Y0133835D01*
X0019765Y0133159D01*
X0019400Y0132277D01*
X0019400Y0051978D01*
X0019356Y0051681D01*
X0019400Y0051505D01*
X0019400Y0051323D01*
X0019515Y0051046D01*
X0019587Y0050755D01*
X0019696Y0050609D01*
X0019765Y0050441D01*
X0019977Y0050229D01*
X0020156Y0049988D01*
X0020312Y0049894D01*
X0020441Y0049765D01*
X0020717Y0049651D01*
X0020975Y0049496D01*
X0021155Y0049470D01*
X0021323Y0049400D01*
X0021622Y0049400D01*
X0021919Y0049356D01*
X0022095Y0049400D01*
X0022277Y0049400D01*
X0022554Y0049515D01*
X0037783Y0053322D01*
X0038798Y0052307D01*
X0040022Y0051800D01*
X0038798Y0051293D01*
X0037307Y0049802D01*
X0036500Y0047854D01*
X0036500Y0045746D01*
X0037307Y0043798D01*
X0038798Y0042307D01*
X0040022Y0041800D01*
X0038798Y0041293D01*
X0037307Y0039802D01*
X0036500Y0037854D01*
X0036500Y0035746D01*
X0037307Y0033798D01*
X0038798Y0032307D01*
X0039744Y0031915D01*
X0039689Y0031897D01*
X0038917Y0031504D01*
X0038217Y0030995D01*
X0037605Y0030383D01*
X0037096Y0029683D01*
X0036703Y0028911D01*
X0036435Y0028088D01*
X0036300Y0027233D01*
X0036300Y0027000D01*
X0041600Y0027000D01*
X0041600Y0026600D01*
X0036300Y0026600D01*
X0036300Y0026367D01*
X0036435Y0025512D01*
X0036703Y0024689D01*
X0037096Y0023917D01*
X0037605Y0023217D01*
X0038217Y0022605D01*
X0038917Y0022096D01*
X0039689Y0021703D01*
X0040512Y0021435D01*
X0041128Y0021338D01*
X0040630Y0021259D01*
X0039807Y0020992D01*
X0039035Y0020598D01*
X0038335Y0020090D01*
X0037723Y0019477D01*
X0037214Y0018777D01*
X0036821Y0018006D01*
X0036554Y0017182D01*
X0036418Y0016327D01*
X0036418Y0016094D01*
X0041718Y0016094D01*
X0041718Y0015694D01*
X0042118Y0015694D01*
X0042118Y0010394D01*
X0042351Y0010394D01*
X0043206Y0010530D01*
X0044029Y0010797D01*
X0044801Y0011190D01*
X0045501Y0011699D01*
X0046113Y0012311D01*
X0046622Y0013012D01*
X0047015Y0013783D01*
X0047283Y0014607D01*
X0047418Y0015462D01*
X0047418Y0015694D01*
X0042118Y0015694D01*
X0042118Y0016094D01*
X0047418Y0016094D01*
X0047418Y0016327D01*
X0047283Y0017182D01*
X0047015Y0018006D01*
X0046622Y0018777D01*
X0046113Y0019477D01*
X0045501Y0020090D01*
X0044801Y0020598D01*
X0044029Y0020992D01*
X0043206Y0021259D01*
X0042590Y0021357D01*
X0043088Y0021435D01*
X0043911Y0021703D01*
X0044683Y0022096D01*
X0045383Y0022605D01*
X0045995Y0023217D01*
X0046504Y0023917D01*
X0046897Y0024689D01*
X0047165Y0025512D01*
X0047300Y0026367D01*
X0047300Y0026600D01*
X0042000Y0026600D01*
X0042000Y0027000D01*
X0047300Y0027000D01*
X0047300Y0027233D01*
X0047165Y0028088D01*
X0046897Y0028911D01*
X0046504Y0029683D01*
X0045995Y0030383D01*
X0045383Y0030995D01*
X0044683Y0031504D01*
X0043911Y0031897D01*
X0043856Y0031915D01*
X0044802Y0032307D01*
X0046293Y0033798D01*
X0047100Y0035746D01*
X0047100Y0037854D01*
X0046293Y0039802D01*
X0044802Y0041293D01*
X0043578Y0041800D01*
X0044802Y0042307D01*
X0046293Y0043798D01*
X0047100Y0045746D01*
X0047100Y0047854D01*
X0046293Y0049802D01*
X0044802Y0051293D01*
X0043578Y0051800D01*
X0044802Y0052307D01*
X0046293Y0053798D01*
X0047100Y0055746D01*
X0047100Y0057854D01*
X0046293Y0059802D01*
X0044802Y0061293D01*
X0043578Y0061800D01*
X0044802Y0062307D01*
X0046293Y0063798D01*
X0047100Y0065746D01*
X0047100Y0067854D01*
X0046293Y0069802D01*
X0044802Y0071293D01*
X0043578Y0071800D01*
X0044802Y0072307D01*
X0046293Y0073798D01*
X0047100Y0075746D01*
X0047100Y0077854D01*
X0046293Y0079802D01*
X0044802Y0081293D01*
X0043578Y0081800D01*
X0044802Y0082307D01*
X0045817Y0083322D01*
X0061046Y0079515D01*
X0061323Y0079400D01*
X0061505Y0079400D01*
X0061681Y0079356D01*
X0061978Y0079400D01*
X0062277Y0079400D01*
X0062445Y0079470D01*
X0062625Y0079496D01*
X0062883Y0079651D01*
X0063159Y0079765D01*
X0063288Y0079894D01*
X0063444Y0079988D01*
X0063623Y0080229D01*
X0063835Y0080441D01*
X0063904Y0080609D01*
X0064013Y0080755D01*
X0064085Y0081046D01*
X0064200Y0081323D01*
X0064200Y0081505D01*
X0064244Y0081681D01*
X0064200Y0081978D01*
X0064200Y0138019D01*
X0064644Y0138019D01*
X0065581Y0138956D01*
X0065581Y0143298D01*
X0159672Y0143298D01*
X0159672Y0142854D01*
X0160610Y0141917D01*
X0166297Y0141917D01*
X0167235Y0142854D01*
X0167235Y0148541D01*
X0166376Y0149400D01*
X0309400Y0149400D01*
X0309400Y0024618D01*
X0308667Y0026388D01*
X0306388Y0028667D01*
X0304200Y0029573D01*
X0304200Y0088019D01*
X0304644Y0088019D01*
X0305581Y0088956D01*
X0305581Y0094644D01*
X0304644Y0095581D01*
X0304191Y0095581D01*
X0304132Y0121578D01*
X0305927Y0121578D01*
X0306865Y0122515D01*
X0306865Y0130140D01*
X0305927Y0131077D01*
X0297515Y0131077D01*
X0296578Y0130140D01*
X0296578Y0122515D01*
X0297515Y0121578D01*
X0299332Y0121578D01*
X0299391Y0095581D01*
X0298956Y0095581D01*
X0298019Y0094644D01*
X0298019Y0088956D01*
X0298956Y0088019D01*
X0299400Y0088019D01*
X0299400Y0029573D01*
X0297212Y0028667D01*
X0294933Y0026388D01*
X0293700Y0023411D01*
X0293700Y0020189D01*
X0294933Y0017212D01*
X0297212Y0014933D01*
X0298982Y0014200D01*
X0284618Y0014200D01*
X0286388Y0014933D01*
X0288667Y0017212D01*
X0289900Y0020189D01*
X0289900Y0023411D01*
X0288667Y0026388D01*
X0286388Y0028667D01*
X0285581Y0029001D01*
X0285581Y0034644D01*
X0284644Y0035581D01*
X0284200Y0035581D01*
X0284200Y0121972D01*
X0286026Y0121972D01*
X0286963Y0122909D01*
X0286963Y0130534D01*
X0286026Y0131471D01*
X0277614Y0131471D01*
X0276676Y0130534D01*
X0276676Y0122909D01*
X0277614Y0121972D01*
X0279400Y0121972D01*
X0279400Y0035581D01*
X0278956Y0035581D01*
X0278019Y0034644D01*
X0278019Y0029001D01*
X0277212Y0028667D01*
X0274933Y0026388D01*
X0273700Y0023411D01*
X0273700Y0020189D01*
X0274933Y0017212D01*
X0277212Y0014933D01*
X0278982Y0014200D01*
X0264618Y0014200D01*
X0266388Y0014933D01*
X0268667Y0017212D01*
X0269900Y0020189D01*
X0269900Y0023411D01*
X0268667Y0026388D01*
X0266388Y0028667D01*
X0264594Y0029410D01*
X0264594Y0102350D01*
X0265038Y0102350D01*
X0265975Y0103287D01*
X0265975Y0108975D01*
X0265038Y0109912D01*
X0264594Y0109912D01*
X0264594Y0121972D01*
X0266124Y0121972D01*
X0267061Y0122909D01*
X0267061Y0130534D01*
X0266124Y0131471D01*
X0257712Y0131471D01*
X0256775Y0130534D01*
X0256775Y0122909D01*
X0257712Y0121972D01*
X0259794Y0121972D01*
X0259794Y0109912D01*
X0259350Y0109912D01*
X0258413Y0108975D01*
X0258413Y0103287D01*
X0259350Y0102350D01*
X0259794Y0102350D01*
X0259794Y0029736D01*
X0257212Y0028667D01*
X0254933Y0026388D01*
X0254200Y0024618D01*
X0254200Y0052277D01*
X0253835Y0053159D01*
X0253159Y0053835D01*
X0252277Y0054200D01*
X0244200Y0054200D01*
X0244200Y0121932D01*
X0245711Y0121932D01*
X0246648Y0122870D01*
X0246648Y0130494D01*
X0245711Y0131431D01*
X0237299Y0131431D01*
X0236361Y0130494D01*
X0236361Y0122870D01*
X0237299Y0121932D01*
X0239400Y0121932D01*
X0239400Y0029573D01*
X0237212Y0028667D01*
X0234933Y0026388D01*
X0234200Y0024618D01*
X0234200Y0102277D01*
X0233835Y0103159D01*
X0233159Y0103835D01*
X0232277Y0104200D01*
X0224200Y0104200D01*
X0224200Y0121775D01*
X0226144Y0121775D01*
X0227081Y0122712D01*
X0227081Y0130337D01*
X0226144Y0131274D01*
X0217732Y0131274D01*
X0216794Y0130337D01*
X0216794Y0122712D01*
X0217732Y0121775D01*
X0219400Y0121775D01*
X0219400Y0029573D01*
X0217212Y0028667D01*
X0214933Y0026388D01*
X0213700Y0023411D01*
X0213700Y0020189D01*
X0214933Y0017212D01*
X0217212Y0014933D01*
X0218982Y0014200D01*
X0204618Y0014200D01*
X0206388Y0014933D01*
X0208667Y0017212D01*
X0209900Y0020189D01*
X0209900Y0023411D01*
X0208667Y0026388D01*
X0206388Y0028667D01*
X0204200Y0029573D01*
X0204200Y0121972D01*
X0206124Y0121972D01*
X0207061Y0122909D01*
X0207061Y0130534D01*
X0206124Y0131471D01*
X0197712Y0131471D01*
X0196775Y0130534D01*
X0196775Y0124200D01*
X0102189Y0124200D01*
X0102106Y0124228D01*
X0101715Y0124200D01*
X0101323Y0124200D01*
X0101241Y0124166D01*
X0101154Y0124160D01*
X0100803Y0123985D01*
X0100441Y0123835D01*
X0100378Y0123772D01*
X0095008Y0121087D01*
X0094802Y0121293D01*
X0093578Y0121800D01*
X0094802Y0122307D01*
X0096293Y0123798D01*
X0097100Y0125746D01*
X0097100Y0127854D01*
X0096293Y0129802D01*
X0094802Y0131293D01*
X0092854Y0132100D01*
X0090746Y0132100D01*
X0088798Y0131293D01*
X0087307Y0129802D01*
X0086500Y0127854D01*
X0086500Y0125746D01*
X0087307Y0123798D01*
X0088798Y0122307D01*
X0090022Y0121800D01*
X0088798Y0121293D01*
X0087307Y0119802D01*
X0086500Y0117854D01*
X0086500Y0115746D01*
X0087307Y0113798D01*
X0088798Y0112307D01*
X0090022Y0111800D01*
X0088798Y0111293D01*
X0087307Y0109802D01*
X0086500Y0107854D01*
X0086500Y0105746D01*
X0087307Y0103798D01*
X0088798Y0102307D01*
X0090022Y0101800D01*
X0088798Y0101293D01*
X0087307Y0099802D01*
X0086500Y0097854D01*
X0086500Y0095746D01*
X0087307Y0093798D01*
X0088798Y0092307D01*
X0090022Y0091800D01*
X0088798Y0091293D01*
X0087307Y0089802D01*
X0086500Y0087854D01*
X0086500Y0085746D01*
X0087307Y0083798D01*
X0088798Y0082307D01*
X0090022Y0081800D01*
X0088798Y0081293D01*
X0087307Y0079802D01*
X0086500Y0077854D01*
X0086500Y0075746D01*
X0087307Y0073798D01*
X0088798Y0072307D01*
X0090022Y0071800D01*
X0088798Y0071293D01*
X0087307Y0069802D01*
X0086500Y0067854D01*
X0086500Y0065746D01*
X0087307Y0063798D01*
X0088798Y0062307D01*
X0090022Y0061800D01*
X0088798Y0061293D01*
X0087307Y0059802D01*
X0086500Y0057854D01*
X0086500Y0055746D01*
X0087307Y0053798D01*
X0088798Y0052307D01*
X0090022Y0051800D01*
X0088798Y0051293D01*
X0087307Y0049802D01*
X0086500Y0047854D01*
X0086500Y0045746D01*
X0087307Y0043798D01*
X0088798Y0042307D01*
X0090022Y0041800D01*
X0088798Y0041293D01*
X0087307Y0039802D01*
X0086500Y0037854D01*
X0086500Y0035746D01*
X0087307Y0033798D01*
X0088798Y0032307D01*
X0090022Y0031800D01*
X0088798Y0031293D01*
X0087307Y0029802D01*
X0086500Y0027854D01*
X0086500Y0025746D01*
X0087307Y0023798D01*
X0088798Y0022307D01*
X0089400Y0022057D01*
X0089400Y0020732D01*
X0088758Y0020466D01*
X0087268Y0018975D01*
X0086461Y0017027D01*
X0086461Y0014919D01*
X0087268Y0012971D01*
X0088758Y0011480D01*
X0090706Y0010673D01*
X0092815Y0010673D01*
X0094763Y0011480D01*
X0096254Y0012971D01*
X0097061Y0014919D01*
X0097061Y0017027D01*
X0096254Y0018975D01*
X0094763Y0020466D01*
X0094200Y0020699D01*
X0094200Y0022057D01*
X0094802Y0022307D01*
X0096293Y0023798D01*
X0097100Y0025746D01*
X0097100Y0027854D01*
X0096293Y0029802D01*
X0094802Y0031293D01*
X0093578Y0031800D01*
X0094802Y0032307D01*
X0095008Y0032513D01*
X0098019Y0031007D01*
X0098019Y0028956D01*
X0098956Y0028019D01*
X0104644Y0028019D01*
X0105581Y0028956D01*
X0105581Y0034644D01*
X0104644Y0035581D01*
X0099604Y0035581D01*
X0097100Y0036833D01*
X0097100Y0037854D01*
X0096293Y0039802D01*
X0094802Y0041293D01*
X0093578Y0041800D01*
X0094802Y0042307D01*
X0096293Y0043798D01*
X0097100Y0045746D01*
X0097100Y0047854D01*
X0096293Y0049802D01*
X0094802Y0051293D01*
X0093578Y0051800D01*
X0094802Y0052307D01*
X0096293Y0053798D01*
X0097100Y0055746D01*
X0097100Y0057854D01*
X0096293Y0059802D01*
X0094802Y0061293D01*
X0093578Y0061800D01*
X0094802Y0062307D01*
X0096293Y0063798D01*
X0097100Y0065746D01*
X0097100Y0067854D01*
X0096293Y0069802D01*
X0094802Y0071293D01*
X0093578Y0071800D01*
X0094802Y0072307D01*
X0096293Y0073798D01*
X0097100Y0075746D01*
X0097100Y0077854D01*
X0096293Y0079802D01*
X0094802Y0081293D01*
X0093578Y0081800D01*
X0094802Y0082307D01*
X0096293Y0083798D01*
X0097100Y0085746D01*
X0097100Y0087854D01*
X0096293Y0089802D01*
X0094802Y0091293D01*
X0093578Y0091800D01*
X0094802Y0092307D01*
X0096293Y0093798D01*
X0097100Y0095746D01*
X0097100Y0096767D01*
X0102367Y0099400D01*
X0109400Y0099400D01*
X0109400Y0011323D01*
X0109765Y0010441D01*
X0110441Y0009765D01*
X0109400Y0011391D02*
X0094548Y0011391D01*
X0096261Y0012990D02*
X0109400Y0012990D01*
X0109400Y0014588D02*
X0096924Y0014588D01*
X0097061Y0016187D02*
X0109400Y0016187D01*
X0109400Y0017785D02*
X0096747Y0017785D01*
X0095846Y0019384D02*
X0109400Y0019384D01*
X0109400Y0020982D02*
X0094200Y0020982D01*
X0095076Y0022581D02*
X0109400Y0022581D01*
X0109400Y0024179D02*
X0096451Y0024179D01*
X0097100Y0025778D02*
X0109400Y0025778D01*
X0109400Y0027376D02*
X0097100Y0027376D01*
X0096636Y0028975D02*
X0098019Y0028975D01*
X0098019Y0030573D02*
X0095522Y0030573D01*
X0095690Y0032172D02*
X0094476Y0032172D01*
X0089124Y0032172D02*
X0044476Y0032172D01*
X0045805Y0030573D02*
X0088078Y0030573D01*
X0086964Y0028975D02*
X0046865Y0028975D01*
X0047277Y0027376D02*
X0086500Y0027376D01*
X0086500Y0025778D02*
X0047207Y0025778D01*
X0046637Y0024179D02*
X0087149Y0024179D01*
X0088524Y0022581D02*
X0045350Y0022581D01*
X0044048Y0020982D02*
X0089400Y0020982D01*
X0087676Y0019384D02*
X0046181Y0019384D01*
X0047087Y0017785D02*
X0086774Y0017785D01*
X0086461Y0016187D02*
X0047418Y0016187D01*
X0047277Y0014588D02*
X0086598Y0014588D01*
X0087260Y0012990D02*
X0046606Y0012990D01*
X0045077Y0011391D02*
X0088973Y0011391D01*
X0091761Y0015973D02*
X0091800Y0015973D01*
X0091800Y0026800D01*
X0091761Y0026800D01*
X0091800Y0036800D02*
X0101800Y0031800D01*
X0105581Y0032172D02*
X0109400Y0032172D01*
X0109400Y0033770D02*
X0105581Y0033770D01*
X0104856Y0035369D02*
X0109400Y0035369D01*
X0109400Y0036967D02*
X0097100Y0036967D01*
X0096805Y0038566D02*
X0109400Y0038566D01*
X0109400Y0040164D02*
X0095931Y0040164D01*
X0093668Y0041763D02*
X0109400Y0041763D01*
X0109400Y0043361D02*
X0095857Y0043361D01*
X0096774Y0044960D02*
X0109400Y0044960D01*
X0109400Y0046558D02*
X0097100Y0046558D01*
X0096975Y0048157D02*
X0109400Y0048157D01*
X0109400Y0049755D02*
X0096313Y0049755D01*
X0094656Y0051354D02*
X0109400Y0051354D01*
X0109400Y0052952D02*
X0095448Y0052952D01*
X0096605Y0054551D02*
X0109400Y0054551D01*
X0109400Y0056149D02*
X0097100Y0056149D01*
X0097100Y0057748D02*
X0109400Y0057748D01*
X0109400Y0059346D02*
X0096482Y0059346D01*
X0095150Y0060945D02*
X0109400Y0060945D01*
X0109400Y0062543D02*
X0095039Y0062543D01*
X0096436Y0064142D02*
X0109400Y0064142D01*
X0109400Y0065740D02*
X0097098Y0065740D01*
X0097100Y0067339D02*
X0109400Y0067339D01*
X0109400Y0068937D02*
X0096651Y0068937D01*
X0095559Y0070536D02*
X0109400Y0070536D01*
X0109400Y0072134D02*
X0094386Y0072134D01*
X0096228Y0073733D02*
X0109400Y0073733D01*
X0109400Y0075332D02*
X0096928Y0075332D01*
X0097100Y0076930D02*
X0109400Y0076930D01*
X0109400Y0078529D02*
X0096821Y0078529D01*
X0095968Y0080127D02*
X0109400Y0080127D01*
X0109400Y0081726D02*
X0093758Y0081726D01*
X0095819Y0083324D02*
X0109400Y0083324D01*
X0109400Y0084923D02*
X0096759Y0084923D01*
X0097100Y0086521D02*
X0109400Y0086521D01*
X0109400Y0088120D02*
X0096990Y0088120D01*
X0096328Y0089718D02*
X0109400Y0089718D01*
X0109400Y0091317D02*
X0094745Y0091317D01*
X0095410Y0092915D02*
X0109400Y0092915D01*
X0109400Y0094514D02*
X0096590Y0094514D01*
X0097100Y0096112D02*
X0109400Y0096112D01*
X0109400Y0097711D02*
X0098988Y0097711D01*
X0102185Y0099309D02*
X0109400Y0099309D01*
X0111800Y0101800D02*
X0101800Y0101800D01*
X0091800Y0096800D01*
X0087010Y0094514D02*
X0064200Y0094514D01*
X0064200Y0096112D02*
X0086500Y0096112D01*
X0086500Y0097711D02*
X0064200Y0097711D01*
X0064200Y0099309D02*
X0087103Y0099309D01*
X0088412Y0100908D02*
X0064200Y0100908D01*
X0064200Y0102506D02*
X0088598Y0102506D01*
X0087180Y0104105D02*
X0064200Y0104105D01*
X0064200Y0105703D02*
X0086518Y0105703D01*
X0086500Y0107302D02*
X0064200Y0107302D01*
X0064200Y0108900D02*
X0086933Y0108900D01*
X0088003Y0110499D02*
X0064200Y0110499D01*
X0064200Y0112097D02*
X0089304Y0112097D01*
X0087409Y0113696D02*
X0064200Y0113696D01*
X0064200Y0115294D02*
X0086687Y0115294D01*
X0086500Y0116893D02*
X0064200Y0116893D01*
X0064200Y0118491D02*
X0086764Y0118491D01*
X0087595Y0120090D02*
X0064200Y0120090D01*
X0064200Y0121688D02*
X0089752Y0121688D01*
X0087818Y0123287D02*
X0064200Y0123287D01*
X0064200Y0124885D02*
X0086856Y0124885D01*
X0086500Y0126484D02*
X0064200Y0126484D01*
X0064200Y0128082D02*
X0086595Y0128082D01*
X0087257Y0129681D02*
X0064200Y0129681D01*
X0064200Y0131279D02*
X0088784Y0131279D01*
X0094816Y0131279D02*
X0197521Y0131279D01*
X0197829Y0132878D02*
X0064200Y0132878D01*
X0064200Y0134476D02*
X0196575Y0134476D01*
X0196575Y0134358D02*
X0196697Y0133900D01*
X0196934Y0133490D01*
X0197270Y0133155D01*
X0197680Y0132918D01*
X0198138Y0132795D01*
X0201143Y0132795D01*
X0201143Y0136970D01*
X0196575Y0136970D01*
X0196575Y0134358D01*
X0196575Y0136075D02*
X0064200Y0136075D01*
X0064200Y0137673D02*
X0201143Y0137673D01*
X0201143Y0136970D02*
X0201143Y0138520D01*
X0201143Y0142694D01*
X0198138Y0142694D01*
X0197680Y0142572D01*
X0197270Y0142335D01*
X0196934Y0142000D01*
X0196697Y0141589D01*
X0196575Y0141131D01*
X0196575Y0138520D01*
X0201143Y0138520D01*
X0202693Y0138520D01*
X0202693Y0142694D01*
X0205698Y0142694D01*
X0206156Y0142572D01*
X0206567Y0142335D01*
X0206902Y0142000D01*
X0207139Y0141589D01*
X0207261Y0141131D01*
X0207261Y0138520D01*
X0202693Y0138520D01*
X0202693Y0136970D01*
X0207261Y0136970D01*
X0207261Y0134358D01*
X0207139Y0133900D01*
X0206902Y0133490D01*
X0206567Y0133155D01*
X0206156Y0132918D01*
X0205698Y0132795D01*
X0202693Y0132795D01*
X0202693Y0136970D01*
X0201143Y0136970D01*
X0201143Y0136075D02*
X0202693Y0136075D01*
X0202693Y0137673D02*
X0221163Y0137673D01*
X0221505Y0137745D02*
X0241505Y0137706D01*
X0201938Y0137706D01*
X0201918Y0137745D02*
X0067351Y0137627D01*
X0067351Y0026800D01*
X0041800Y0026800D01*
X0041800Y0016013D01*
X0041918Y0015894D01*
X0041718Y0015694D02*
X0041718Y0010394D01*
X0041485Y0010394D01*
X0040630Y0010530D01*
X0039807Y0010797D01*
X0039035Y0011190D01*
X0038335Y0011699D01*
X0037723Y0012311D01*
X0037214Y0013012D01*
X0036821Y0013783D01*
X0036554Y0014607D01*
X0036418Y0015462D01*
X0036418Y0015694D01*
X0041718Y0015694D01*
X0041718Y0016095D02*
X0041718Y0021394D01*
X0041600Y0021394D01*
X0041600Y0026600D01*
X0042000Y0026600D01*
X0042000Y0021300D01*
X0042118Y0021300D01*
X0042118Y0016095D01*
X0041718Y0016095D01*
X0041718Y0016187D02*
X0042118Y0016187D01*
X0042118Y0017785D02*
X0041718Y0017785D01*
X0041718Y0019384D02*
X0042118Y0019384D01*
X0042118Y0020982D02*
X0041718Y0020982D01*
X0041600Y0022581D02*
X0042000Y0022581D01*
X0042000Y0024179D02*
X0041600Y0024179D01*
X0041600Y0025778D02*
X0042000Y0025778D01*
X0038250Y0022581D02*
X0019694Y0022581D01*
X0021292Y0020982D02*
X0039788Y0020982D01*
X0037655Y0019384D02*
X0022391Y0019384D01*
X0023053Y0017785D02*
X0036749Y0017785D01*
X0036418Y0016187D02*
X0023331Y0016187D01*
X0023331Y0014588D02*
X0036560Y0014588D01*
X0037230Y0012990D02*
X0023024Y0012990D01*
X0022362Y0011391D02*
X0038759Y0011391D01*
X0041718Y0011391D02*
X0042118Y0011391D01*
X0042118Y0012990D02*
X0041718Y0012990D01*
X0041718Y0014588D02*
X0042118Y0014588D01*
X0036963Y0024179D02*
X0003800Y0024179D01*
X0003800Y0022581D02*
X0009969Y0022581D01*
X0008371Y0020982D02*
X0003800Y0020982D01*
X0003800Y0019384D02*
X0007272Y0019384D01*
X0006610Y0017785D02*
X0003800Y0017785D01*
X0003800Y0016187D02*
X0006331Y0016187D01*
X0006331Y0014588D02*
X0003800Y0014588D01*
X0003800Y0012990D02*
X0006639Y0012990D01*
X0007301Y0011391D02*
X0003800Y0011391D01*
X0003800Y0009793D02*
X0008440Y0009793D01*
X0010070Y0008194D02*
X0003800Y0008194D01*
X0003800Y0006596D02*
X0377005Y0006596D01*
X0377005Y0004997D02*
X0003800Y0004997D01*
X0003800Y0003800D02*
X0003800Y0159800D01*
X0377005Y0159800D01*
X0377005Y0003800D01*
X0003800Y0003800D01*
X0003800Y0025778D02*
X0036393Y0025778D01*
X0036323Y0027376D02*
X0003800Y0027376D01*
X0003800Y0028975D02*
X0036735Y0028975D01*
X0037795Y0030573D02*
X0003800Y0030573D01*
X0003800Y0032172D02*
X0039124Y0032172D01*
X0037334Y0033770D02*
X0003800Y0033770D01*
X0003800Y0035369D02*
X0036656Y0035369D01*
X0036500Y0036967D02*
X0003800Y0036967D01*
X0003800Y0038566D02*
X0036795Y0038566D01*
X0037669Y0040164D02*
X0003800Y0040164D01*
X0003800Y0041763D02*
X0039932Y0041763D01*
X0037743Y0043361D02*
X0003800Y0043361D01*
X0003800Y0044960D02*
X0036826Y0044960D01*
X0036500Y0046558D02*
X0003800Y0046558D01*
X0003800Y0048157D02*
X0036625Y0048157D01*
X0037287Y0049755D02*
X0023517Y0049755D01*
X0021800Y0051800D02*
X0041800Y0056800D01*
X0045448Y0052952D02*
X0088152Y0052952D01*
X0088944Y0051354D02*
X0044656Y0051354D01*
X0046313Y0049755D02*
X0087287Y0049755D01*
X0086625Y0048157D02*
X0046975Y0048157D01*
X0047100Y0046558D02*
X0086500Y0046558D01*
X0086826Y0044960D02*
X0046774Y0044960D01*
X0045857Y0043361D02*
X0087743Y0043361D01*
X0089932Y0041763D02*
X0043668Y0041763D01*
X0045931Y0040164D02*
X0087669Y0040164D01*
X0086795Y0038566D02*
X0046805Y0038566D01*
X0047100Y0036967D02*
X0086500Y0036967D01*
X0086656Y0035369D02*
X0046944Y0035369D01*
X0046266Y0033770D02*
X0087334Y0033770D01*
X0105581Y0030573D02*
X0109400Y0030573D01*
X0109400Y0028975D02*
X0105581Y0028975D01*
X0111800Y0011800D02*
X0111800Y0101800D01*
X0091800Y0106800D02*
X0191839Y0106800D01*
X0192509Y0106131D01*
X0185028Y0100619D02*
X0181800Y0097391D01*
X0181800Y0021800D01*
X0201800Y0021800D02*
X0201800Y0121800D01*
X0101800Y0121800D01*
X0091800Y0116800D01*
X0091800Y0115973D01*
X0093848Y0121688D02*
X0096210Y0121688D01*
X0095782Y0123287D02*
X0099407Y0123287D01*
X0096744Y0124885D02*
X0196775Y0124885D01*
X0196775Y0126484D02*
X0097100Y0126484D01*
X0097005Y0128082D02*
X0196775Y0128082D01*
X0196775Y0129681D02*
X0096343Y0129681D01*
X0065581Y0139272D02*
X0196575Y0139272D01*
X0196575Y0140870D02*
X0065581Y0140870D01*
X0065581Y0142469D02*
X0160057Y0142469D01*
X0166850Y0142469D02*
X0197502Y0142469D01*
X0201143Y0142469D02*
X0202693Y0142469D01*
X0202693Y0140870D02*
X0201143Y0140870D01*
X0201143Y0139272D02*
X0202693Y0139272D01*
X0207261Y0139272D02*
X0216594Y0139272D01*
X0216594Y0138323D02*
X0216594Y0140935D01*
X0216717Y0141392D01*
X0216954Y0141803D01*
X0217289Y0142138D01*
X0217700Y0142375D01*
X0218158Y0142498D01*
X0221163Y0142498D01*
X0221163Y0138323D01*
X0222713Y0138323D01*
X0227281Y0138323D01*
X0227281Y0140935D01*
X0227158Y0141392D01*
X0226921Y0141803D01*
X0226586Y0142138D01*
X0226176Y0142375D01*
X0225718Y0142498D01*
X0222713Y0142498D01*
X0222713Y0138323D01*
X0222713Y0136773D01*
X0227281Y0136773D01*
X0227281Y0134161D01*
X0227158Y0133704D01*
X0226921Y0133293D01*
X0226586Y0132958D01*
X0226176Y0132721D01*
X0225718Y0132598D01*
X0222713Y0132598D01*
X0222713Y0136773D01*
X0221163Y0136773D01*
X0221163Y0132598D01*
X0218158Y0132598D01*
X0217700Y0132721D01*
X0217289Y0132958D01*
X0216954Y0133293D01*
X0216717Y0133704D01*
X0216594Y0134161D01*
X0216594Y0136773D01*
X0221163Y0136773D01*
X0221163Y0138323D01*
X0216594Y0138323D01*
X0216594Y0136075D02*
X0207261Y0136075D01*
X0207261Y0134476D02*
X0216594Y0134476D01*
X0217428Y0132878D02*
X0206007Y0132878D01*
X0206316Y0131279D02*
X0237147Y0131279D01*
X0237724Y0132756D02*
X0240730Y0132756D01*
X0240730Y0136931D01*
X0236161Y0136931D01*
X0236161Y0134319D01*
X0236284Y0133861D01*
X0236521Y0133451D01*
X0236856Y0133116D01*
X0237267Y0132879D01*
X0237724Y0132756D01*
X0237269Y0132878D02*
X0226448Y0132878D01*
X0227281Y0134476D02*
X0236161Y0134476D01*
X0236161Y0136075D02*
X0227281Y0136075D01*
X0222713Y0136075D02*
X0221163Y0136075D01*
X0221163Y0134476D02*
X0222713Y0134476D01*
X0222713Y0132878D02*
X0221163Y0132878D01*
X0216794Y0129681D02*
X0207061Y0129681D01*
X0207061Y0128082D02*
X0216794Y0128082D01*
X0216794Y0126484D02*
X0207061Y0126484D01*
X0207061Y0124885D02*
X0216794Y0124885D01*
X0216794Y0123287D02*
X0207061Y0123287D01*
X0204200Y0121688D02*
X0219400Y0121688D01*
X0219400Y0120090D02*
X0204200Y0120090D01*
X0204200Y0118491D02*
X0219400Y0118491D01*
X0219400Y0116893D02*
X0204200Y0116893D01*
X0204200Y0115294D02*
X0219400Y0115294D01*
X0219400Y0113696D02*
X0204200Y0113696D01*
X0204200Y0112097D02*
X0219400Y0112097D01*
X0219400Y0110499D02*
X0204200Y0110499D01*
X0204200Y0108900D02*
X0219400Y0108900D01*
X0219400Y0107302D02*
X0204200Y0107302D01*
X0204200Y0105703D02*
X0219400Y0105703D01*
X0219400Y0104105D02*
X0204200Y0104105D01*
X0204200Y0102506D02*
X0219400Y0102506D01*
X0219400Y0100908D02*
X0204200Y0100908D01*
X0204200Y0099309D02*
X0219400Y0099309D01*
X0219400Y0097711D02*
X0204200Y0097711D01*
X0204200Y0096112D02*
X0219400Y0096112D01*
X0219400Y0094514D02*
X0204200Y0094514D01*
X0204200Y0092915D02*
X0219400Y0092915D01*
X0219400Y0091317D02*
X0204200Y0091317D01*
X0204200Y0089718D02*
X0219400Y0089718D01*
X0219400Y0088120D02*
X0204200Y0088120D01*
X0204200Y0086521D02*
X0219400Y0086521D01*
X0219400Y0084923D02*
X0204200Y0084923D01*
X0204200Y0083324D02*
X0219400Y0083324D01*
X0219400Y0081726D02*
X0204200Y0081726D01*
X0204200Y0080127D02*
X0219400Y0080127D01*
X0219400Y0078529D02*
X0204200Y0078529D01*
X0204200Y0076930D02*
X0219400Y0076930D01*
X0219400Y0075332D02*
X0204200Y0075332D01*
X0204200Y0073733D02*
X0219400Y0073733D01*
X0219400Y0072134D02*
X0204200Y0072134D01*
X0204200Y0070536D02*
X0219400Y0070536D01*
X0219400Y0068937D02*
X0204200Y0068937D01*
X0204200Y0067339D02*
X0219400Y0067339D01*
X0219400Y0065740D02*
X0204200Y0065740D01*
X0204200Y0064142D02*
X0219400Y0064142D01*
X0219400Y0062543D02*
X0204200Y0062543D01*
X0204200Y0060945D02*
X0219400Y0060945D01*
X0219400Y0059346D02*
X0204200Y0059346D01*
X0204200Y0057748D02*
X0219400Y0057748D01*
X0219400Y0056149D02*
X0204200Y0056149D01*
X0204200Y0054551D02*
X0219400Y0054551D01*
X0219400Y0052952D02*
X0204200Y0052952D01*
X0204200Y0051354D02*
X0219400Y0051354D01*
X0219400Y0049755D02*
X0204200Y0049755D01*
X0204200Y0048157D02*
X0219400Y0048157D01*
X0219400Y0046558D02*
X0204200Y0046558D01*
X0204200Y0044960D02*
X0219400Y0044960D01*
X0219400Y0043361D02*
X0204200Y0043361D01*
X0204200Y0041763D02*
X0219400Y0041763D01*
X0219400Y0040164D02*
X0204200Y0040164D01*
X0204200Y0038566D02*
X0219400Y0038566D01*
X0219400Y0036967D02*
X0204200Y0036967D01*
X0204200Y0035369D02*
X0219400Y0035369D01*
X0219400Y0033770D02*
X0204200Y0033770D01*
X0204200Y0032172D02*
X0219400Y0032172D01*
X0219400Y0030573D02*
X0204200Y0030573D01*
X0205645Y0028975D02*
X0217955Y0028975D01*
X0215921Y0027376D02*
X0207679Y0027376D01*
X0208920Y0025778D02*
X0214680Y0025778D01*
X0214018Y0024179D02*
X0209582Y0024179D01*
X0209900Y0022581D02*
X0213700Y0022581D01*
X0213700Y0020982D02*
X0209900Y0020982D01*
X0209566Y0019384D02*
X0214034Y0019384D01*
X0214696Y0017785D02*
X0208904Y0017785D01*
X0207642Y0016187D02*
X0215958Y0016187D01*
X0218045Y0014588D02*
X0205555Y0014588D01*
X0221800Y0021800D02*
X0221800Y0101800D01*
X0231800Y0101800D01*
X0231800Y0011800D01*
X0111800Y0011800D01*
X0038944Y0051354D02*
X0029911Y0051354D01*
X0036305Y0052952D02*
X0038152Y0052952D01*
X0046605Y0054551D02*
X0086995Y0054551D01*
X0086500Y0056149D02*
X0047100Y0056149D01*
X0047100Y0057748D02*
X0086500Y0057748D01*
X0087118Y0059346D02*
X0046482Y0059346D01*
X0045150Y0060945D02*
X0088450Y0060945D01*
X0088561Y0062543D02*
X0045039Y0062543D01*
X0046436Y0064142D02*
X0087164Y0064142D01*
X0086502Y0065740D02*
X0047098Y0065740D01*
X0047100Y0067339D02*
X0086500Y0067339D01*
X0086949Y0068937D02*
X0046651Y0068937D01*
X0045559Y0070536D02*
X0088041Y0070536D01*
X0089214Y0072134D02*
X0044386Y0072134D01*
X0046228Y0073733D02*
X0087372Y0073733D01*
X0086672Y0075332D02*
X0046928Y0075332D01*
X0047100Y0076930D02*
X0086500Y0076930D01*
X0086779Y0078529D02*
X0046821Y0078529D01*
X0045968Y0080127D02*
X0058596Y0080127D01*
X0063547Y0080127D02*
X0087632Y0080127D01*
X0089842Y0081726D02*
X0064237Y0081726D01*
X0064200Y0083324D02*
X0087781Y0083324D01*
X0086841Y0084923D02*
X0064200Y0084923D01*
X0064200Y0086521D02*
X0086500Y0086521D01*
X0086610Y0088120D02*
X0064200Y0088120D01*
X0064200Y0089718D02*
X0087272Y0089718D01*
X0088855Y0091317D02*
X0064200Y0091317D01*
X0064200Y0092915D02*
X0088190Y0092915D01*
X0061800Y0081800D02*
X0041800Y0086800D01*
X0043758Y0081726D02*
X0052202Y0081726D01*
X0061800Y0081800D02*
X0061800Y0141800D01*
X0053572Y0145698D02*
X0163454Y0145698D01*
X0167235Y0145666D02*
X0309400Y0145666D01*
X0309400Y0144068D02*
X0167235Y0144068D01*
X0167235Y0147265D02*
X0309400Y0147265D01*
X0309400Y0148863D02*
X0166913Y0148863D01*
X0201143Y0134476D02*
X0202693Y0134476D01*
X0202693Y0132878D02*
X0201143Y0132878D01*
X0201800Y0126721D02*
X0201918Y0126721D01*
X0201800Y0126721D02*
X0201800Y0121800D01*
X0221800Y0126524D02*
X0221800Y0101800D01*
X0224200Y0105703D02*
X0239400Y0105703D01*
X0239400Y0104105D02*
X0232507Y0104105D01*
X0234105Y0102506D02*
X0239400Y0102506D01*
X0239400Y0100908D02*
X0234200Y0100908D01*
X0234200Y0099309D02*
X0239400Y0099309D01*
X0239400Y0097711D02*
X0234200Y0097711D01*
X0234200Y0096112D02*
X0239400Y0096112D01*
X0239400Y0094514D02*
X0234200Y0094514D01*
X0234200Y0092915D02*
X0239400Y0092915D01*
X0239400Y0091317D02*
X0234200Y0091317D01*
X0234200Y0089718D02*
X0239400Y0089718D01*
X0239400Y0088120D02*
X0234200Y0088120D01*
X0234200Y0086521D02*
X0239400Y0086521D01*
X0239400Y0084923D02*
X0234200Y0084923D01*
X0234200Y0083324D02*
X0239400Y0083324D01*
X0239400Y0081726D02*
X0234200Y0081726D01*
X0234200Y0080127D02*
X0239400Y0080127D01*
X0239400Y0078529D02*
X0234200Y0078529D01*
X0234200Y0076930D02*
X0239400Y0076930D01*
X0239400Y0075332D02*
X0234200Y0075332D01*
X0234200Y0073733D02*
X0239400Y0073733D01*
X0239400Y0072134D02*
X0234200Y0072134D01*
X0234200Y0070536D02*
X0239400Y0070536D01*
X0239400Y0068937D02*
X0234200Y0068937D01*
X0234200Y0067339D02*
X0239400Y0067339D01*
X0239400Y0065740D02*
X0234200Y0065740D01*
X0234200Y0064142D02*
X0239400Y0064142D01*
X0239400Y0062543D02*
X0234200Y0062543D01*
X0234200Y0060945D02*
X0239400Y0060945D01*
X0239400Y0059346D02*
X0234200Y0059346D01*
X0234200Y0057748D02*
X0239400Y0057748D01*
X0239400Y0056149D02*
X0234200Y0056149D01*
X0234200Y0054551D02*
X0239400Y0054551D01*
X0239400Y0052952D02*
X0234200Y0052952D01*
X0234200Y0051354D02*
X0239400Y0051354D01*
X0239400Y0049755D02*
X0234200Y0049755D01*
X0234200Y0048157D02*
X0239400Y0048157D01*
X0239400Y0046558D02*
X0234200Y0046558D01*
X0234200Y0044960D02*
X0239400Y0044960D01*
X0239400Y0043361D02*
X0234200Y0043361D01*
X0234200Y0041763D02*
X0239400Y0041763D01*
X0239400Y0040164D02*
X0234200Y0040164D01*
X0234200Y0038566D02*
X0239400Y0038566D01*
X0239400Y0036967D02*
X0234200Y0036967D01*
X0234200Y0035369D02*
X0239400Y0035369D01*
X0239400Y0033770D02*
X0234200Y0033770D01*
X0234200Y0032172D02*
X0239400Y0032172D01*
X0239400Y0030573D02*
X0234200Y0030573D01*
X0234200Y0028975D02*
X0237955Y0028975D01*
X0235921Y0027376D02*
X0234200Y0027376D01*
X0234200Y0025778D02*
X0234680Y0025778D01*
X0241800Y0021800D02*
X0241800Y0051800D01*
X0251800Y0051800D01*
X0251800Y0011800D01*
X0311800Y0011800D01*
X0311800Y0151800D01*
X0041800Y0151800D01*
X0021800Y0131800D01*
X0021800Y0051800D01*
X0019400Y0051354D02*
X0003800Y0051354D01*
X0003800Y0052952D02*
X0019400Y0052952D01*
X0019400Y0054551D02*
X0003800Y0054551D01*
X0003800Y0056149D02*
X0019400Y0056149D01*
X0019400Y0057748D02*
X0003800Y0057748D01*
X0003800Y0059346D02*
X0019400Y0059346D01*
X0019400Y0060945D02*
X0003800Y0060945D01*
X0003800Y0062543D02*
X0019400Y0062543D01*
X0019400Y0064142D02*
X0003800Y0064142D01*
X0003800Y0065740D02*
X0019400Y0065740D01*
X0019400Y0067339D02*
X0003800Y0067339D01*
X0003800Y0068937D02*
X0019400Y0068937D01*
X0019400Y0070536D02*
X0003800Y0070536D01*
X0003800Y0072134D02*
X0019400Y0072134D01*
X0019400Y0073733D02*
X0003800Y0073733D01*
X0003800Y0075332D02*
X0019400Y0075332D01*
X0019400Y0076930D02*
X0003800Y0076930D01*
X0003800Y0078529D02*
X0019400Y0078529D01*
X0019400Y0080127D02*
X0003800Y0080127D01*
X0003800Y0081726D02*
X0019400Y0081726D01*
X0019400Y0083324D02*
X0003800Y0083324D01*
X0003800Y0084923D02*
X0019400Y0084923D01*
X0019400Y0086521D02*
X0003800Y0086521D01*
X0003800Y0088120D02*
X0019400Y0088120D01*
X0019400Y0089718D02*
X0003800Y0089718D01*
X0003800Y0091317D02*
X0019400Y0091317D01*
X0019400Y0092915D02*
X0003800Y0092915D01*
X0003800Y0094514D02*
X0019400Y0094514D01*
X0019400Y0096112D02*
X0003800Y0096112D01*
X0003800Y0097711D02*
X0019400Y0097711D01*
X0019400Y0099309D02*
X0003800Y0099309D01*
X0003800Y0100908D02*
X0019400Y0100908D01*
X0019400Y0102506D02*
X0003800Y0102506D01*
X0003800Y0104105D02*
X0019400Y0104105D01*
X0019400Y0105703D02*
X0003800Y0105703D01*
X0003800Y0107302D02*
X0019400Y0107302D01*
X0019400Y0108900D02*
X0003800Y0108900D01*
X0003800Y0110499D02*
X0019400Y0110499D01*
X0019400Y0112097D02*
X0003800Y0112097D01*
X0003800Y0113696D02*
X0019400Y0113696D01*
X0019400Y0115294D02*
X0003800Y0115294D01*
X0003800Y0116893D02*
X0019400Y0116893D01*
X0019400Y0118491D02*
X0003800Y0118491D01*
X0003800Y0120090D02*
X0019400Y0120090D01*
X0019400Y0121688D02*
X0003800Y0121688D01*
X0003800Y0123287D02*
X0019400Y0123287D01*
X0019400Y0124885D02*
X0003800Y0124885D01*
X0003800Y0126484D02*
X0019400Y0126484D01*
X0019400Y0128082D02*
X0003800Y0128082D01*
X0003800Y0129681D02*
X0019400Y0129681D01*
X0019400Y0131279D02*
X0003800Y0131279D01*
X0003800Y0132878D02*
X0019649Y0132878D01*
X0021082Y0134476D02*
X0003800Y0134476D01*
X0003800Y0136075D02*
X0022681Y0136075D01*
X0024279Y0137673D02*
X0003800Y0137673D01*
X0003800Y0139272D02*
X0025878Y0139272D01*
X0027476Y0140870D02*
X0017025Y0140870D01*
X0016522Y0140662D02*
X0014334Y0140662D01*
X0013141Y0140662D01*
X0010017Y0141956D01*
X0010017Y0141956D01*
X0007626Y0144347D01*
X0007626Y0144347D01*
X0006331Y0147471D01*
X0006331Y0150853D01*
X0007626Y0153977D01*
X0007626Y0153977D01*
X0010017Y0156368D01*
X0010017Y0156368D01*
X0013141Y0157662D01*
X0016522Y0157662D01*
X0019646Y0156368D01*
X0019646Y0156368D01*
X0022037Y0153977D01*
X0022037Y0153977D01*
X0023331Y0150853D01*
X0023331Y0147471D01*
X0022037Y0144347D01*
X0022037Y0144347D01*
X0019646Y0141956D01*
X0019646Y0141956D01*
X0016522Y0140662D01*
X0012638Y0140870D02*
X0003800Y0140870D01*
X0003800Y0142469D02*
X0009504Y0142469D01*
X0007905Y0144068D02*
X0003800Y0144068D01*
X0003800Y0145666D02*
X0007079Y0145666D01*
X0006417Y0147265D02*
X0003800Y0147265D01*
X0003800Y0148863D02*
X0006331Y0148863D01*
X0006331Y0150462D02*
X0003800Y0150462D01*
X0003800Y0152060D02*
X0006832Y0152060D01*
X0007494Y0153659D02*
X0003800Y0153659D01*
X0003800Y0155257D02*
X0008906Y0155257D01*
X0011193Y0156856D02*
X0003800Y0156856D01*
X0003800Y0158454D02*
X0377005Y0158454D01*
X0377005Y0156856D02*
X0369729Y0156856D01*
X0370906Y0156368D02*
X0367782Y0157662D01*
X0364401Y0157662D01*
X0361276Y0156368D01*
X0358885Y0153977D01*
X0357591Y0150853D01*
X0357591Y0147471D01*
X0358885Y0144347D01*
X0361276Y0141956D01*
X0361276Y0141956D01*
X0364401Y0140662D01*
X0366588Y0140662D01*
X0367782Y0140662D01*
X0370906Y0141956D01*
X0373297Y0144347D01*
X0373297Y0144347D01*
X0374591Y0147471D01*
X0374591Y0150853D01*
X0373297Y0153977D01*
X0370906Y0156368D01*
X0370906Y0156368D01*
X0372017Y0155257D02*
X0377005Y0155257D01*
X0377005Y0153659D02*
X0373429Y0153659D01*
X0373297Y0153977D02*
X0373297Y0153977D01*
X0374091Y0152060D02*
X0377005Y0152060D01*
X0377005Y0150462D02*
X0374591Y0150462D01*
X0374591Y0148863D02*
X0377005Y0148863D01*
X0377005Y0147265D02*
X0374506Y0147265D01*
X0373843Y0145666D02*
X0377005Y0145666D01*
X0377005Y0144068D02*
X0373017Y0144068D01*
X0371419Y0142469D02*
X0377005Y0142469D01*
X0377005Y0140870D02*
X0368285Y0140870D01*
X0367782Y0140662D02*
X0367782Y0140662D01*
X0370906Y0141956D02*
X0370906Y0141956D01*
X0377005Y0139272D02*
X0314200Y0139272D01*
X0314200Y0140870D02*
X0363898Y0140870D01*
X0360764Y0142469D02*
X0314200Y0142469D01*
X0314200Y0144068D02*
X0359165Y0144068D01*
X0358885Y0144347D02*
X0358885Y0144347D01*
X0358339Y0145666D02*
X0314200Y0145666D01*
X0314200Y0147265D02*
X0357677Y0147265D01*
X0357591Y0148863D02*
X0314200Y0148863D01*
X0314200Y0150462D02*
X0357591Y0150462D01*
X0358091Y0152060D02*
X0314200Y0152060D01*
X0313336Y0153659D02*
X0358753Y0153659D01*
X0358885Y0153977D02*
X0358885Y0153977D01*
X0360165Y0155257D02*
X0020757Y0155257D01*
X0022169Y0153659D02*
X0040264Y0153659D01*
X0038666Y0152060D02*
X0022831Y0152060D01*
X0023331Y0150462D02*
X0037067Y0150462D01*
X0035469Y0148863D02*
X0023331Y0148863D01*
X0023246Y0147265D02*
X0033870Y0147265D01*
X0032272Y0145666D02*
X0022584Y0145666D01*
X0021758Y0144068D02*
X0030673Y0144068D01*
X0029075Y0142469D02*
X0020159Y0142469D01*
X0018470Y0156856D02*
X0362453Y0156856D01*
X0361276Y0156368D02*
X0361276Y0156368D01*
X0377005Y0137673D02*
X0314200Y0137673D01*
X0314200Y0136075D02*
X0377005Y0136075D01*
X0377005Y0134476D02*
X0314200Y0134476D01*
X0314200Y0132878D02*
X0377005Y0132878D01*
X0377005Y0131279D02*
X0314200Y0131279D01*
X0314200Y0129681D02*
X0377005Y0129681D01*
X0377005Y0128082D02*
X0314200Y0128082D01*
X0314200Y0126484D02*
X0339258Y0126484D01*
X0337390Y0124885D02*
X0314200Y0124885D01*
X0314200Y0123287D02*
X0319893Y0123287D01*
X0319400Y0121688D02*
X0314200Y0121688D01*
X0314200Y0120090D02*
X0319400Y0120090D01*
X0319400Y0118491D02*
X0314200Y0118491D01*
X0314200Y0116893D02*
X0319400Y0116893D01*
X0319400Y0115294D02*
X0314200Y0115294D01*
X0314200Y0113696D02*
X0319400Y0113696D01*
X0319400Y0112097D02*
X0314200Y0112097D01*
X0314200Y0110499D02*
X0319400Y0110499D01*
X0319400Y0108900D02*
X0314200Y0108900D01*
X0314200Y0107302D02*
X0319400Y0107302D01*
X0319400Y0105703D02*
X0314200Y0105703D01*
X0314200Y0104105D02*
X0319400Y0104105D01*
X0319400Y0102506D02*
X0314200Y0102506D01*
X0314200Y0100908D02*
X0319400Y0100908D01*
X0319400Y0099309D02*
X0314200Y0099309D01*
X0314200Y0097711D02*
X0319400Y0097711D01*
X0319400Y0096112D02*
X0314200Y0096112D01*
X0314200Y0094514D02*
X0319400Y0094514D01*
X0319400Y0092915D02*
X0314200Y0092915D01*
X0314200Y0091317D02*
X0319400Y0091317D01*
X0319400Y0089718D02*
X0314200Y0089718D01*
X0314200Y0088120D02*
X0319400Y0088120D01*
X0319400Y0086521D02*
X0314200Y0086521D01*
X0314200Y0084923D02*
X0319400Y0084923D01*
X0319400Y0083324D02*
X0314200Y0083324D01*
X0314200Y0081726D02*
X0319400Y0081726D01*
X0319400Y0080127D02*
X0314200Y0080127D01*
X0314200Y0078529D02*
X0319400Y0078529D01*
X0319400Y0076930D02*
X0314200Y0076930D01*
X0314200Y0075332D02*
X0319400Y0075332D01*
X0319400Y0073733D02*
X0314200Y0073733D01*
X0314200Y0072134D02*
X0319400Y0072134D01*
X0319400Y0070536D02*
X0314200Y0070536D01*
X0314200Y0068937D02*
X0319400Y0068937D01*
X0319400Y0067339D02*
X0314200Y0067339D01*
X0314200Y0065740D02*
X0319400Y0065740D01*
X0319400Y0064142D02*
X0314200Y0064142D01*
X0314200Y0062543D02*
X0319400Y0062543D01*
X0319400Y0060945D02*
X0314200Y0060945D01*
X0314200Y0059346D02*
X0319400Y0059346D01*
X0319400Y0057748D02*
X0314200Y0057748D01*
X0314200Y0056149D02*
X0319400Y0056149D01*
X0319400Y0054551D02*
X0314200Y0054551D01*
X0314200Y0052952D02*
X0319400Y0052952D01*
X0319400Y0051354D02*
X0314200Y0051354D01*
X0314200Y0049755D02*
X0319400Y0049755D01*
X0319400Y0048157D02*
X0314200Y0048157D01*
X0314200Y0046558D02*
X0319400Y0046558D01*
X0319400Y0044960D02*
X0314200Y0044960D01*
X0314200Y0043361D02*
X0319400Y0043361D01*
X0319400Y0041763D02*
X0314200Y0041763D01*
X0314200Y0040164D02*
X0319400Y0040164D01*
X0319400Y0038566D02*
X0314200Y0038566D01*
X0314200Y0036967D02*
X0319400Y0036967D01*
X0319400Y0035369D02*
X0314200Y0035369D01*
X0314200Y0033770D02*
X0319400Y0033770D01*
X0319400Y0032172D02*
X0314200Y0032172D01*
X0314200Y0030573D02*
X0319400Y0030573D01*
X0317955Y0028975D02*
X0314200Y0028975D01*
X0314200Y0027376D02*
X0315921Y0027376D01*
X0314680Y0025778D02*
X0314200Y0025778D01*
X0309400Y0025778D02*
X0308920Y0025778D01*
X0309400Y0027376D02*
X0307679Y0027376D01*
X0309400Y0028975D02*
X0305645Y0028975D01*
X0304200Y0030573D02*
X0309400Y0030573D01*
X0309400Y0032172D02*
X0304200Y0032172D01*
X0304200Y0033770D02*
X0309400Y0033770D01*
X0309400Y0035369D02*
X0304200Y0035369D01*
X0304200Y0036967D02*
X0309400Y0036967D01*
X0309400Y0038566D02*
X0304200Y0038566D01*
X0304200Y0040164D02*
X0309400Y0040164D01*
X0309400Y0041763D02*
X0304200Y0041763D01*
X0304200Y0043361D02*
X0309400Y0043361D01*
X0309400Y0044960D02*
X0304200Y0044960D01*
X0304200Y0046558D02*
X0309400Y0046558D01*
X0309400Y0048157D02*
X0304200Y0048157D01*
X0304200Y0049755D02*
X0309400Y0049755D01*
X0309400Y0051354D02*
X0304200Y0051354D01*
X0304200Y0052952D02*
X0309400Y0052952D01*
X0309400Y0054551D02*
X0304200Y0054551D01*
X0304200Y0056149D02*
X0309400Y0056149D01*
X0309400Y0057748D02*
X0304200Y0057748D01*
X0304200Y0059346D02*
X0309400Y0059346D01*
X0309400Y0060945D02*
X0304200Y0060945D01*
X0304200Y0062543D02*
X0309400Y0062543D01*
X0309400Y0064142D02*
X0304200Y0064142D01*
X0304200Y0065740D02*
X0309400Y0065740D01*
X0309400Y0067339D02*
X0304200Y0067339D01*
X0304200Y0068937D02*
X0309400Y0068937D01*
X0309400Y0070536D02*
X0304200Y0070536D01*
X0304200Y0072134D02*
X0309400Y0072134D01*
X0309400Y0073733D02*
X0304200Y0073733D01*
X0304200Y0075332D02*
X0309400Y0075332D01*
X0309400Y0076930D02*
X0304200Y0076930D01*
X0304200Y0078529D02*
X0309400Y0078529D01*
X0309400Y0080127D02*
X0304200Y0080127D01*
X0304200Y0081726D02*
X0309400Y0081726D01*
X0309400Y0083324D02*
X0304200Y0083324D01*
X0304200Y0084923D02*
X0309400Y0084923D01*
X0309400Y0086521D02*
X0304200Y0086521D01*
X0304745Y0088120D02*
X0309400Y0088120D01*
X0309400Y0089718D02*
X0305581Y0089718D01*
X0305581Y0091317D02*
X0309400Y0091317D01*
X0309400Y0092915D02*
X0305581Y0092915D01*
X0305581Y0094514D02*
X0309400Y0094514D01*
X0309400Y0096112D02*
X0304190Y0096112D01*
X0304187Y0097711D02*
X0309400Y0097711D01*
X0309400Y0099309D02*
X0304183Y0099309D01*
X0304179Y0100908D02*
X0309400Y0100908D01*
X0309400Y0102506D02*
X0304176Y0102506D01*
X0304172Y0104105D02*
X0309400Y0104105D01*
X0309400Y0105703D02*
X0304168Y0105703D01*
X0304165Y0107302D02*
X0309400Y0107302D01*
X0309400Y0108900D02*
X0304161Y0108900D01*
X0304157Y0110499D02*
X0309400Y0110499D01*
X0309400Y0112097D02*
X0304154Y0112097D01*
X0304150Y0113696D02*
X0309400Y0113696D01*
X0309400Y0115294D02*
X0304146Y0115294D01*
X0304143Y0116893D02*
X0309400Y0116893D01*
X0309400Y0118491D02*
X0304139Y0118491D01*
X0304135Y0120090D02*
X0309400Y0120090D01*
X0309400Y0121688D02*
X0306038Y0121688D01*
X0306865Y0123287D02*
X0309400Y0123287D01*
X0309400Y0124885D02*
X0306865Y0124885D01*
X0306865Y0126484D02*
X0309400Y0126484D01*
X0309400Y0128082D02*
X0306865Y0128082D01*
X0306865Y0129681D02*
X0309400Y0129681D01*
X0309400Y0131279D02*
X0286217Y0131279D01*
X0285908Y0132878D02*
X0296956Y0132878D01*
X0297073Y0132761D02*
X0296738Y0133096D01*
X0296501Y0133507D01*
X0296378Y0133965D01*
X0296378Y0136576D01*
X0300946Y0136576D01*
X0300946Y0138126D01*
X0296378Y0138126D01*
X0296378Y0140738D01*
X0296501Y0141196D01*
X0296738Y0141606D01*
X0297073Y0141941D01*
X0297483Y0142178D01*
X0297941Y0142301D01*
X0300946Y0142301D01*
X0300946Y0138126D01*
X0302496Y0138126D01*
X0302496Y0142301D01*
X0305502Y0142301D01*
X0305959Y0142178D01*
X0306370Y0141941D01*
X0306705Y0141606D01*
X0306942Y0141196D01*
X0307065Y0140738D01*
X0307065Y0138126D01*
X0302496Y0138126D01*
X0302496Y0136576D01*
X0302496Y0132402D01*
X0305502Y0132402D01*
X0305959Y0132524D01*
X0306370Y0132761D01*
X0306705Y0133096D01*
X0306942Y0133507D01*
X0307065Y0133965D01*
X0307065Y0136576D01*
X0302496Y0136576D01*
X0300946Y0136576D01*
X0300946Y0132402D01*
X0297941Y0132402D01*
X0297483Y0132524D01*
X0297073Y0132761D01*
X0296378Y0134476D02*
X0287163Y0134476D01*
X0287163Y0134358D02*
X0287163Y0136970D01*
X0282595Y0136970D01*
X0282595Y0138520D01*
X0287163Y0138520D01*
X0287163Y0141131D01*
X0287040Y0141589D01*
X0286803Y0142000D01*
X0286468Y0142335D01*
X0286058Y0142572D01*
X0285600Y0142694D01*
X0282594Y0142694D01*
X0282594Y0138520D01*
X0281045Y0138520D01*
X0281045Y0142694D01*
X0278039Y0142694D01*
X0277582Y0142572D01*
X0277171Y0142335D01*
X0276836Y0142000D01*
X0276599Y0141589D01*
X0276476Y0141131D01*
X0276476Y0138520D01*
X0281045Y0138520D01*
X0281045Y0136970D01*
X0282594Y0136970D01*
X0282594Y0132795D01*
X0285600Y0132795D01*
X0286058Y0132918D01*
X0286468Y0133155D01*
X0286803Y0133490D01*
X0287040Y0133900D01*
X0287163Y0134358D01*
X0287163Y0136075D02*
X0296378Y0136075D01*
X0296378Y0139272D02*
X0287163Y0139272D01*
X0287163Y0140870D02*
X0296414Y0140870D01*
X0300946Y0140870D02*
X0302496Y0140870D01*
X0302496Y0139272D02*
X0300946Y0139272D01*
X0300946Y0137673D02*
X0282595Y0137673D01*
X0281820Y0137745D02*
X0281820Y0137351D01*
X0301721Y0137351D01*
X0302496Y0137673D02*
X0309400Y0137673D01*
X0309400Y0136075D02*
X0307065Y0136075D01*
X0307065Y0134476D02*
X0309400Y0134476D01*
X0309400Y0132878D02*
X0306487Y0132878D01*
X0302496Y0132878D02*
X0300946Y0132878D01*
X0300946Y0134476D02*
X0302496Y0134476D01*
X0302496Y0136075D02*
X0300946Y0136075D01*
X0307065Y0139272D02*
X0309400Y0139272D01*
X0309400Y0140870D02*
X0307029Y0140870D01*
X0309400Y0142469D02*
X0286236Y0142469D01*
X0282594Y0142469D02*
X0281045Y0142469D01*
X0281045Y0140870D02*
X0282594Y0140870D01*
X0282594Y0139272D02*
X0281045Y0139272D01*
X0281045Y0137673D02*
X0262693Y0137673D01*
X0262693Y0136970D02*
X0262693Y0138520D01*
X0261143Y0138520D01*
X0261143Y0142694D01*
X0258138Y0142694D01*
X0257680Y0142572D01*
X0257270Y0142335D01*
X0256934Y0142000D01*
X0256697Y0141589D01*
X0256575Y0141131D01*
X0256575Y0138520D01*
X0261143Y0138520D01*
X0261143Y0136970D01*
X0256575Y0136970D01*
X0256575Y0134358D01*
X0256697Y0133900D01*
X0256934Y0133490D01*
X0257270Y0133155D01*
X0257680Y0132918D01*
X0258138Y0132795D01*
X0261143Y0132795D01*
X0261143Y0136970D01*
X0262693Y0136970D01*
X0267261Y0136970D01*
X0267261Y0134358D01*
X0267139Y0133900D01*
X0266902Y0133490D01*
X0266567Y0133155D01*
X0266156Y0132918D01*
X0265698Y0132795D01*
X0262693Y0132795D01*
X0262693Y0136970D01*
X0262693Y0136075D02*
X0261143Y0136075D01*
X0261143Y0137673D02*
X0242280Y0137673D01*
X0242280Y0136931D02*
X0242280Y0138480D01*
X0246848Y0138480D01*
X0246848Y0141092D01*
X0246725Y0141550D01*
X0246488Y0141960D01*
X0246153Y0142295D01*
X0245743Y0142532D01*
X0245285Y0142655D01*
X0242280Y0142655D01*
X0242280Y0138480D01*
X0240730Y0138480D01*
X0240730Y0136931D01*
X0242280Y0136931D01*
X0246848Y0136931D01*
X0246848Y0134319D01*
X0246725Y0133861D01*
X0246488Y0133451D01*
X0246153Y0133116D01*
X0245743Y0132879D01*
X0245285Y0132756D01*
X0242280Y0132756D01*
X0242280Y0136931D01*
X0242280Y0136075D02*
X0240730Y0136075D01*
X0240730Y0137673D02*
X0222713Y0137673D01*
X0221505Y0137745D02*
X0261918Y0137745D01*
X0281820Y0137745D01*
X0281045Y0136970D02*
X0276476Y0136970D01*
X0276476Y0134358D01*
X0276599Y0133900D01*
X0276836Y0133490D01*
X0277171Y0133155D01*
X0277582Y0132918D01*
X0278039Y0132795D01*
X0281045Y0132795D01*
X0281045Y0136970D01*
X0281045Y0136075D02*
X0282594Y0136075D01*
X0282594Y0134476D02*
X0281045Y0134476D01*
X0281045Y0132878D02*
X0282594Y0132878D01*
X0277731Y0132878D02*
X0266007Y0132878D01*
X0266316Y0131279D02*
X0277422Y0131279D01*
X0276676Y0129681D02*
X0267061Y0129681D01*
X0267061Y0128082D02*
X0276676Y0128082D01*
X0276676Y0126484D02*
X0267061Y0126484D01*
X0267061Y0124885D02*
X0276676Y0124885D01*
X0276676Y0123287D02*
X0267061Y0123287D01*
X0264594Y0121688D02*
X0279400Y0121688D01*
X0279400Y0120090D02*
X0264594Y0120090D01*
X0264594Y0118491D02*
X0279400Y0118491D01*
X0279400Y0116893D02*
X0264594Y0116893D01*
X0264594Y0115294D02*
X0279400Y0115294D01*
X0279400Y0113696D02*
X0264594Y0113696D01*
X0264594Y0112097D02*
X0279400Y0112097D01*
X0279400Y0110499D02*
X0264594Y0110499D01*
X0265975Y0108900D02*
X0279400Y0108900D01*
X0279400Y0107302D02*
X0265975Y0107302D01*
X0265975Y0105703D02*
X0279400Y0105703D01*
X0279400Y0104105D02*
X0265975Y0104105D01*
X0265194Y0102506D02*
X0279400Y0102506D01*
X0279400Y0100908D02*
X0264594Y0100908D01*
X0264594Y0099309D02*
X0279400Y0099309D01*
X0279400Y0097711D02*
X0264594Y0097711D01*
X0264594Y0096112D02*
X0279400Y0096112D01*
X0279400Y0094514D02*
X0264594Y0094514D01*
X0264594Y0092915D02*
X0279400Y0092915D01*
X0279400Y0091317D02*
X0264594Y0091317D01*
X0264594Y0089718D02*
X0279400Y0089718D01*
X0279400Y0088120D02*
X0264594Y0088120D01*
X0264594Y0086521D02*
X0279400Y0086521D01*
X0279400Y0084923D02*
X0264594Y0084923D01*
X0264594Y0083324D02*
X0279400Y0083324D01*
X0279400Y0081726D02*
X0264594Y0081726D01*
X0264594Y0080127D02*
X0279400Y0080127D01*
X0279400Y0078529D02*
X0264594Y0078529D01*
X0264594Y0076930D02*
X0279400Y0076930D01*
X0279400Y0075332D02*
X0264594Y0075332D01*
X0264594Y0073733D02*
X0279400Y0073733D01*
X0279400Y0072134D02*
X0264594Y0072134D01*
X0264594Y0070536D02*
X0279400Y0070536D01*
X0279400Y0068937D02*
X0264594Y0068937D01*
X0264594Y0067339D02*
X0279400Y0067339D01*
X0279400Y0065740D02*
X0264594Y0065740D01*
X0264594Y0064142D02*
X0279400Y0064142D01*
X0279400Y0062543D02*
X0264594Y0062543D01*
X0264594Y0060945D02*
X0279400Y0060945D01*
X0279400Y0059346D02*
X0264594Y0059346D01*
X0264594Y0057748D02*
X0279400Y0057748D01*
X0279400Y0056149D02*
X0264594Y0056149D01*
X0264594Y0054551D02*
X0279400Y0054551D01*
X0279400Y0052952D02*
X0264594Y0052952D01*
X0264594Y0051354D02*
X0279400Y0051354D01*
X0279400Y0049755D02*
X0264594Y0049755D01*
X0264594Y0048157D02*
X0279400Y0048157D01*
X0279400Y0046558D02*
X0264594Y0046558D01*
X0264594Y0044960D02*
X0279400Y0044960D01*
X0279400Y0043361D02*
X0264594Y0043361D01*
X0264594Y0041763D02*
X0279400Y0041763D01*
X0279400Y0040164D02*
X0264594Y0040164D01*
X0264594Y0038566D02*
X0279400Y0038566D01*
X0279400Y0036967D02*
X0264594Y0036967D01*
X0264594Y0035369D02*
X0278744Y0035369D01*
X0278019Y0033770D02*
X0264594Y0033770D01*
X0264594Y0032172D02*
X0278019Y0032172D01*
X0278019Y0030573D02*
X0264594Y0030573D01*
X0265645Y0028975D02*
X0277955Y0028975D01*
X0275921Y0027376D02*
X0267679Y0027376D01*
X0268920Y0025778D02*
X0274680Y0025778D01*
X0274018Y0024179D02*
X0269582Y0024179D01*
X0269900Y0022581D02*
X0273700Y0022581D01*
X0273700Y0020982D02*
X0269900Y0020982D01*
X0269566Y0019384D02*
X0274034Y0019384D01*
X0274696Y0017785D02*
X0268904Y0017785D01*
X0267642Y0016187D02*
X0275958Y0016187D01*
X0278045Y0014588D02*
X0265555Y0014588D01*
X0250413Y0009793D02*
X0233187Y0009793D01*
X0234200Y0011391D02*
X0249400Y0011391D01*
X0249400Y0012990D02*
X0234200Y0012990D01*
X0234200Y0014588D02*
X0238045Y0014588D01*
X0235958Y0016187D02*
X0234200Y0016187D01*
X0234200Y0017785D02*
X0234696Y0017785D01*
X0245555Y0014588D02*
X0249400Y0014588D01*
X0249400Y0016187D02*
X0247642Y0016187D01*
X0248904Y0017785D02*
X0249400Y0017785D01*
X0261800Y0021800D02*
X0262194Y0021800D01*
X0262194Y0106131D01*
X0261800Y0105737D01*
X0262194Y0106131D02*
X0262194Y0126328D01*
X0261800Y0126721D01*
X0261918Y0126721D01*
X0256775Y0126484D02*
X0246648Y0126484D01*
X0246648Y0128082D02*
X0256775Y0128082D01*
X0256775Y0129681D02*
X0246648Y0129681D01*
X0245863Y0131279D02*
X0257521Y0131279D01*
X0257829Y0132878D02*
X0245740Y0132878D01*
X0246848Y0134476D02*
X0256575Y0134476D01*
X0256575Y0136075D02*
X0246848Y0136075D01*
X0242280Y0134476D02*
X0240730Y0134476D01*
X0240730Y0132878D02*
X0242280Y0132878D01*
X0236361Y0129681D02*
X0227081Y0129681D01*
X0227081Y0128082D02*
X0236361Y0128082D01*
X0236361Y0126484D02*
X0227081Y0126484D01*
X0227081Y0124885D02*
X0236361Y0124885D01*
X0236361Y0123287D02*
X0227081Y0123287D01*
X0224200Y0121688D02*
X0239400Y0121688D01*
X0239400Y0120090D02*
X0224200Y0120090D01*
X0224200Y0118491D02*
X0239400Y0118491D01*
X0239400Y0116893D02*
X0224200Y0116893D01*
X0224200Y0115294D02*
X0239400Y0115294D01*
X0239400Y0113696D02*
X0224200Y0113696D01*
X0224200Y0112097D02*
X0239400Y0112097D01*
X0239400Y0110499D02*
X0224200Y0110499D01*
X0224200Y0108900D02*
X0239400Y0108900D01*
X0239400Y0107302D02*
X0224200Y0107302D01*
X0244200Y0107302D02*
X0258413Y0107302D01*
X0258413Y0108900D02*
X0244200Y0108900D01*
X0244200Y0110499D02*
X0259794Y0110499D01*
X0259794Y0112097D02*
X0244200Y0112097D01*
X0244200Y0113696D02*
X0259794Y0113696D01*
X0259794Y0115294D02*
X0244200Y0115294D01*
X0244200Y0116893D02*
X0259794Y0116893D01*
X0259794Y0118491D02*
X0244200Y0118491D01*
X0244200Y0120090D02*
X0259794Y0120090D01*
X0259794Y0121688D02*
X0244200Y0121688D01*
X0246648Y0123287D02*
X0256775Y0123287D01*
X0256775Y0124885D02*
X0246648Y0124885D01*
X0241800Y0126682D02*
X0241505Y0126682D01*
X0241800Y0126682D02*
X0241800Y0051800D01*
X0244200Y0054551D02*
X0259794Y0054551D01*
X0259794Y0056149D02*
X0244200Y0056149D01*
X0244200Y0057748D02*
X0259794Y0057748D01*
X0259794Y0059346D02*
X0244200Y0059346D01*
X0244200Y0060945D02*
X0259794Y0060945D01*
X0259794Y0062543D02*
X0244200Y0062543D01*
X0244200Y0064142D02*
X0259794Y0064142D01*
X0259794Y0065740D02*
X0244200Y0065740D01*
X0244200Y0067339D02*
X0259794Y0067339D01*
X0259794Y0068937D02*
X0244200Y0068937D01*
X0244200Y0070536D02*
X0259794Y0070536D01*
X0259794Y0072134D02*
X0244200Y0072134D01*
X0244200Y0073733D02*
X0259794Y0073733D01*
X0259794Y0075332D02*
X0244200Y0075332D01*
X0244200Y0076930D02*
X0259794Y0076930D01*
X0259794Y0078529D02*
X0244200Y0078529D01*
X0244200Y0080127D02*
X0259794Y0080127D01*
X0259794Y0081726D02*
X0244200Y0081726D01*
X0244200Y0083324D02*
X0259794Y0083324D01*
X0259794Y0084923D02*
X0244200Y0084923D01*
X0244200Y0086521D02*
X0259794Y0086521D01*
X0259794Y0088120D02*
X0244200Y0088120D01*
X0244200Y0089718D02*
X0259794Y0089718D01*
X0259794Y0091317D02*
X0244200Y0091317D01*
X0244200Y0092915D02*
X0259794Y0092915D01*
X0259794Y0094514D02*
X0244200Y0094514D01*
X0244200Y0096112D02*
X0259794Y0096112D01*
X0259794Y0097711D02*
X0244200Y0097711D01*
X0244200Y0099309D02*
X0259794Y0099309D01*
X0259794Y0100908D02*
X0244200Y0100908D01*
X0244200Y0102506D02*
X0259193Y0102506D01*
X0258413Y0104105D02*
X0244200Y0104105D01*
X0244200Y0105703D02*
X0258413Y0105703D01*
X0284200Y0105703D02*
X0299368Y0105703D01*
X0299372Y0104105D02*
X0284200Y0104105D01*
X0284200Y0102506D02*
X0299376Y0102506D01*
X0299379Y0100908D02*
X0284200Y0100908D01*
X0284200Y0099309D02*
X0299383Y0099309D01*
X0299387Y0097711D02*
X0284200Y0097711D01*
X0284200Y0096112D02*
X0299390Y0096112D01*
X0298019Y0094514D02*
X0284200Y0094514D01*
X0284200Y0092915D02*
X0298019Y0092915D01*
X0298019Y0091317D02*
X0284200Y0091317D01*
X0284200Y0089718D02*
X0298019Y0089718D01*
X0298855Y0088120D02*
X0284200Y0088120D01*
X0284200Y0086521D02*
X0299400Y0086521D01*
X0299400Y0084923D02*
X0284200Y0084923D01*
X0284200Y0083324D02*
X0299400Y0083324D01*
X0299400Y0081726D02*
X0284200Y0081726D01*
X0284200Y0080127D02*
X0299400Y0080127D01*
X0299400Y0078529D02*
X0284200Y0078529D01*
X0284200Y0076930D02*
X0299400Y0076930D01*
X0299400Y0075332D02*
X0284200Y0075332D01*
X0284200Y0073733D02*
X0299400Y0073733D01*
X0299400Y0072134D02*
X0284200Y0072134D01*
X0284200Y0070536D02*
X0299400Y0070536D01*
X0299400Y0068937D02*
X0284200Y0068937D01*
X0284200Y0067339D02*
X0299400Y0067339D01*
X0299400Y0065740D02*
X0284200Y0065740D01*
X0284200Y0064142D02*
X0299400Y0064142D01*
X0299400Y0062543D02*
X0284200Y0062543D01*
X0284200Y0060945D02*
X0299400Y0060945D01*
X0299400Y0059346D02*
X0284200Y0059346D01*
X0284200Y0057748D02*
X0299400Y0057748D01*
X0299400Y0056149D02*
X0284200Y0056149D01*
X0284200Y0054551D02*
X0299400Y0054551D01*
X0299400Y0052952D02*
X0284200Y0052952D01*
X0284200Y0051354D02*
X0299400Y0051354D01*
X0299400Y0049755D02*
X0284200Y0049755D01*
X0284200Y0048157D02*
X0299400Y0048157D01*
X0299400Y0046558D02*
X0284200Y0046558D01*
X0284200Y0044960D02*
X0299400Y0044960D01*
X0299400Y0043361D02*
X0284200Y0043361D01*
X0284200Y0041763D02*
X0299400Y0041763D01*
X0299400Y0040164D02*
X0284200Y0040164D01*
X0284200Y0038566D02*
X0299400Y0038566D01*
X0299400Y0036967D02*
X0284200Y0036967D01*
X0284856Y0035369D02*
X0299400Y0035369D01*
X0299400Y0033770D02*
X0285581Y0033770D01*
X0285581Y0032172D02*
X0299400Y0032172D01*
X0299400Y0030573D02*
X0285581Y0030573D01*
X0285645Y0028975D02*
X0297955Y0028975D01*
X0295921Y0027376D02*
X0287679Y0027376D01*
X0288920Y0025778D02*
X0294680Y0025778D01*
X0294018Y0024179D02*
X0289582Y0024179D01*
X0289900Y0022581D02*
X0293700Y0022581D01*
X0293700Y0020982D02*
X0289900Y0020982D01*
X0289566Y0019384D02*
X0294034Y0019384D01*
X0294696Y0017785D02*
X0288904Y0017785D01*
X0287642Y0016187D02*
X0295958Y0016187D01*
X0298045Y0014588D02*
X0285555Y0014588D01*
X0281800Y0021800D02*
X0281800Y0031800D01*
X0281800Y0126721D01*
X0281820Y0126721D01*
X0286963Y0126484D02*
X0296578Y0126484D01*
X0296578Y0128082D02*
X0286963Y0128082D01*
X0286963Y0129681D02*
X0296578Y0129681D01*
X0301721Y0126328D02*
X0301800Y0091800D01*
X0301800Y0021800D01*
X0314200Y0017785D02*
X0314696Y0017785D01*
X0314200Y0016187D02*
X0315958Y0016187D01*
X0314200Y0014588D02*
X0318045Y0014588D01*
X0314200Y0012990D02*
X0358343Y0012990D01*
X0357709Y0014588D02*
X0345555Y0014588D01*
X0347642Y0016187D02*
X0357709Y0016187D01*
X0357709Y0017785D02*
X0348904Y0017785D01*
X0349566Y0019384D02*
X0358324Y0019384D01*
X0358986Y0020982D02*
X0349900Y0020982D01*
X0349900Y0022581D02*
X0360560Y0022581D01*
X0359004Y0021024D02*
X0359003Y0021024D01*
X0359003Y0021024D01*
X0363238Y0024179D02*
X0349582Y0024179D01*
X0337955Y0028975D02*
X0325645Y0028975D01*
X0324200Y0030573D02*
X0339400Y0030573D01*
X0339400Y0032172D02*
X0324200Y0032172D01*
X0324200Y0033770D02*
X0339400Y0033770D01*
X0339400Y0035369D02*
X0324200Y0035369D01*
X0324200Y0036967D02*
X0339400Y0036967D01*
X0339400Y0038566D02*
X0324200Y0038566D01*
X0324200Y0040164D02*
X0339400Y0040164D01*
X0339400Y0041763D02*
X0324200Y0041763D01*
X0324200Y0043361D02*
X0339400Y0043361D01*
X0339400Y0044960D02*
X0324200Y0044960D01*
X0324200Y0046558D02*
X0339400Y0046558D01*
X0339400Y0048157D02*
X0324200Y0048157D01*
X0324200Y0049755D02*
X0339400Y0049755D01*
X0339400Y0051354D02*
X0324200Y0051354D01*
X0324200Y0052952D02*
X0339400Y0052952D01*
X0339400Y0054551D02*
X0324200Y0054551D01*
X0324200Y0056149D02*
X0339400Y0056149D01*
X0339400Y0057748D02*
X0324200Y0057748D01*
X0324200Y0059346D02*
X0339400Y0059346D01*
X0339400Y0060945D02*
X0324200Y0060945D01*
X0324200Y0062543D02*
X0339400Y0062543D01*
X0339400Y0064142D02*
X0324200Y0064142D01*
X0324200Y0065740D02*
X0339400Y0065740D01*
X0339400Y0067339D02*
X0324200Y0067339D01*
X0324200Y0068937D02*
X0339400Y0068937D01*
X0339400Y0070536D02*
X0324200Y0070536D01*
X0324200Y0072134D02*
X0339400Y0072134D01*
X0339400Y0073733D02*
X0324200Y0073733D01*
X0324200Y0075332D02*
X0339400Y0075332D01*
X0339400Y0076930D02*
X0324200Y0076930D01*
X0324200Y0078529D02*
X0337576Y0078529D01*
X0336756Y0080127D02*
X0324200Y0080127D01*
X0324200Y0088120D02*
X0377005Y0088120D01*
X0377005Y0089718D02*
X0324200Y0089718D01*
X0324200Y0091317D02*
X0377005Y0091317D01*
X0377005Y0092915D02*
X0324200Y0092915D01*
X0324200Y0094514D02*
X0377005Y0094514D01*
X0377005Y0096112D02*
X0324200Y0096112D01*
X0324200Y0097711D02*
X0377005Y0097711D01*
X0377005Y0099309D02*
X0324200Y0099309D01*
X0324200Y0100908D02*
X0377005Y0100908D01*
X0377005Y0102506D02*
X0324200Y0102506D01*
X0324200Y0104105D02*
X0377005Y0104105D01*
X0377005Y0105703D02*
X0324200Y0105703D01*
X0324200Y0107302D02*
X0377005Y0107302D01*
X0377005Y0108900D02*
X0324200Y0108900D01*
X0324200Y0110499D02*
X0377005Y0110499D01*
X0377005Y0112097D02*
X0324200Y0112097D01*
X0324200Y0113696D02*
X0377005Y0113696D01*
X0377005Y0115294D02*
X0324200Y0115294D01*
X0324200Y0116893D02*
X0339797Y0116893D01*
X0337613Y0118491D02*
X0324200Y0118491D01*
X0321800Y0121800D02*
X0321800Y0021800D01*
X0329566Y0019384D02*
X0334034Y0019384D01*
X0333700Y0020982D02*
X0329900Y0020982D01*
X0329900Y0022581D02*
X0333700Y0022581D01*
X0334018Y0024179D02*
X0329582Y0024179D01*
X0328920Y0025778D02*
X0334680Y0025778D01*
X0335921Y0027376D02*
X0327679Y0027376D01*
X0328904Y0017785D02*
X0334696Y0017785D01*
X0335958Y0016187D02*
X0327642Y0016187D01*
X0325555Y0014588D02*
X0338045Y0014588D01*
X0359007Y0011391D02*
X0314200Y0011391D01*
X0313187Y0009793D02*
X0360606Y0009793D01*
X0361395Y0009003D02*
X0361395Y0009003D01*
X0259794Y0030573D02*
X0254200Y0030573D01*
X0254200Y0028975D02*
X0257955Y0028975D01*
X0255921Y0027376D02*
X0254200Y0027376D01*
X0254200Y0025778D02*
X0254680Y0025778D01*
X0254200Y0032172D02*
X0259794Y0032172D01*
X0259794Y0033770D02*
X0254200Y0033770D01*
X0254200Y0035369D02*
X0259794Y0035369D01*
X0259794Y0036967D02*
X0254200Y0036967D01*
X0254200Y0038566D02*
X0259794Y0038566D01*
X0259794Y0040164D02*
X0254200Y0040164D01*
X0254200Y0041763D02*
X0259794Y0041763D01*
X0259794Y0043361D02*
X0254200Y0043361D01*
X0254200Y0044960D02*
X0259794Y0044960D01*
X0259794Y0046558D02*
X0254200Y0046558D01*
X0254200Y0048157D02*
X0259794Y0048157D01*
X0259794Y0049755D02*
X0254200Y0049755D01*
X0254200Y0051354D02*
X0259794Y0051354D01*
X0259794Y0052952D02*
X0253920Y0052952D01*
X0284200Y0107302D02*
X0299365Y0107302D01*
X0299361Y0108900D02*
X0284200Y0108900D01*
X0284200Y0110499D02*
X0299357Y0110499D01*
X0299354Y0112097D02*
X0284200Y0112097D01*
X0284200Y0113696D02*
X0299350Y0113696D01*
X0299346Y0115294D02*
X0284200Y0115294D01*
X0284200Y0116893D02*
X0299343Y0116893D01*
X0299339Y0118491D02*
X0284200Y0118491D01*
X0284200Y0120090D02*
X0299335Y0120090D01*
X0297405Y0121688D02*
X0284200Y0121688D01*
X0286963Y0123287D02*
X0296578Y0123287D01*
X0296578Y0124885D02*
X0286963Y0124885D01*
X0276476Y0134476D02*
X0267261Y0134476D01*
X0267261Y0136075D02*
X0276476Y0136075D01*
X0276476Y0139272D02*
X0267261Y0139272D01*
X0267261Y0138520D02*
X0267261Y0141131D01*
X0267139Y0141589D01*
X0266902Y0142000D01*
X0266567Y0142335D01*
X0266156Y0142572D01*
X0265698Y0142694D01*
X0262693Y0142694D01*
X0262693Y0138520D01*
X0267261Y0138520D01*
X0267261Y0140870D02*
X0276476Y0140870D01*
X0277404Y0142469D02*
X0266334Y0142469D01*
X0262693Y0142469D02*
X0261143Y0142469D01*
X0261143Y0140870D02*
X0262693Y0140870D01*
X0262693Y0139272D02*
X0261143Y0139272D01*
X0256575Y0139272D02*
X0246848Y0139272D01*
X0246848Y0140870D02*
X0256575Y0140870D01*
X0257502Y0142469D02*
X0245853Y0142469D01*
X0242280Y0142469D02*
X0240730Y0142469D01*
X0240730Y0142655D02*
X0237724Y0142655D01*
X0237267Y0142532D01*
X0236856Y0142295D01*
X0236521Y0141960D01*
X0236284Y0141550D01*
X0236161Y0141092D01*
X0236161Y0138480D01*
X0240730Y0138480D01*
X0240730Y0142655D01*
X0240730Y0140870D02*
X0242280Y0140870D01*
X0242280Y0139272D02*
X0240730Y0139272D01*
X0236161Y0139272D02*
X0227281Y0139272D01*
X0227281Y0140870D02*
X0236161Y0140870D01*
X0237157Y0142469D02*
X0225825Y0142469D01*
X0222713Y0142469D02*
X0221163Y0142469D01*
X0221163Y0140870D02*
X0222713Y0140870D01*
X0222713Y0139272D02*
X0221163Y0139272D01*
X0218051Y0142469D02*
X0206334Y0142469D01*
X0207261Y0140870D02*
X0216594Y0140870D01*
X0221800Y0126524D02*
X0221938Y0126524D01*
X0261143Y0132878D02*
X0262693Y0132878D01*
X0262693Y0134476D02*
X0261143Y0134476D01*
X0321800Y0121800D02*
X0341800Y0121800D01*
X0347100Y0121688D02*
X0377005Y0121688D01*
X0377005Y0120090D02*
X0346828Y0120090D01*
X0345987Y0118491D02*
X0377005Y0118491D01*
X0377005Y0116893D02*
X0343803Y0116893D01*
X0346921Y0123287D02*
X0377005Y0123287D01*
X0377005Y0124885D02*
X0346210Y0124885D01*
X0344342Y0126484D02*
X0377005Y0126484D01*
X0053572Y0117154D02*
X0053572Y0145698D01*
X0053572Y0117154D02*
X0053178Y0116761D01*
X0041839Y0116761D01*
X0041800Y0116800D01*
X0020465Y0049755D02*
X0003800Y0049755D01*
D16*
X0101800Y0031800D03*
X0185028Y0100619D03*
X0192509Y0106131D03*
X0262194Y0106131D03*
X0301800Y0091800D03*
X0281800Y0031800D03*
X0061800Y0141800D03*
X0163454Y0145698D03*
M02*
