%
M48
M72
T01C0.02362
T02C0.04000
T03C0.07874
T04C0.12000
%
T01
X101800Y31800
X185028Y100619
X192509Y106131
X262194Y106131
X301800Y91800
X281800Y31800
X61800Y141800
X163454Y145698
T02
X91800Y126800
X91800Y116800
X91800Y106800
X91800Y96800
X91800Y86800
X91800Y76800
X91800Y66800
X91800Y56800
X91800Y46800
X91800Y36800
X91800Y26800
X91761Y15973
X41918Y15894
X41800Y26800
X41800Y36800
X41800Y46800
X41800Y56800
X41800Y66800
X41800Y76800
X41800Y86800
X41800Y96800
X41800Y106800
X41800Y116800
X41800Y126800
X341800Y121800
X341800Y81800
T03
X341800Y21800
X321800Y21800
X301800Y21800
X281800Y21800
X261800Y21800
X241800Y21800
X221800Y21800
X201800Y21800
X181800Y21800
T04
X14831Y15422
X14831Y149162
X366091Y149162
X366209Y16209
M30
